<?xml version="1.0" encoding="UTF-8"?>
<svg width="39px" height="29px" viewBox="0 0 39 29" version="1.1" xmlns="http://www.w3.org/2000/svg" xmlns:xlink="http://www.w3.org/1999/xlink">
    <title>combos</title>
    <g id="Page-1" stroke="none" stroke-width="1" fill="none" fill-rule="evenodd">
        <g id="combos" transform="translate(0.000001, 0.894286)" fill="#2D5D2A" fill-rule="nonzero">
            <path d="M27.3357986,13.1256141 C27.7338986,13.1499141 28.1367986,13.1402141 28.5203986,13.2082141 C29.1465986,13.3198141 29.7000986,13.9315141 29.7194986,14.5675141 C29.7340986,15.0967141 29.7000986,15.6307141 29.6175986,16.1550141 C29.4524986,17.1988141 29.1805986,18.2183141 28.8067986,19.2135141 C28.2824986,20.6068141 27.6027986,21.9225141 26.6755986,23.0925141 C26.1075986,23.8159141 25.4958986,24.5149141 24.8404986,25.1606141 C24.2044986,25.7869141 23.5247986,26.3792141 22.7285986,26.8015141 C22.0003986,27.1851141 20.9857986,26.8549141 20.5827986,26.1316141 C20.4953986,25.9714141 20.3934986,25.8209141 20.2963986,25.6607141 C15.9707986,27.8842141 11.6014986,27.9910141 7.2904386,25.7675141 C3.9989086,24.0683141 1.7365786,21.3690141 0.644255606,17.8202141 C-1.8268214,9.79041412 3.1007686,2.13929412 10.4702986,0.406134117 C14.6162986,-0.569671883 18.4903986,0.207094117 21.9081986,2.79954412 C25.3113986,5.37742412 27.0638986,8.87286412 27.3357986,13.1256141 Z M20.4177986,24.2673141 C21.5925986,23.8595141 24.0053986,21.3690141 24.9180986,19.6505141 C25.8113986,17.9658141 26.3405986,16.1793141 26.4279986,14.2665141 C22.4955986,14.2665141 18.5923986,14.2665141 14.6405986,14.2665141 C16.5824986,17.6212141 18.5000986,20.9467141 20.4177986,24.2673141 Z M4.4795286,8.30971412 C4.2319386,8.16407412 3.9746286,8.00386412 3.7076186,7.86307412 C3.5862486,7.79510412 3.5376986,7.75141412 3.6396486,7.61062412 C3.9794886,7.14942412 4.2707686,6.64937412 4.6494486,6.22215412 C5.1154986,5.68813412 5.6349686,5.18809412 6.1592786,4.70747412 C6.5136786,4.38220412 6.9214786,4.11033412 7.3195686,3.80448412 C7.1836386,3.57630412 7.0428486,3.34327412 6.8874986,3.09083412 C3.3435086,5.54249412 1.4064586,8.85344412 1.1006086,13.1402141 C4.9941286,13.1402141 8.8294086,13.1402141 12.6937986,13.1402141 C12.6063986,12.9751141 12.5384986,12.8295141 12.4558986,12.6839141 C11.6985986,11.3731141 10.9363986,10.0671141 10.1789986,8.76120412 C9.4508186,7.49896412 8.7177486,6.24157412 7.9992386,4.97448412 C7.9118586,4.81913412 7.8487386,4.80942412 7.7128086,4.91622412 C7.4360886,5.13954412 7.1205286,5.32402412 6.8583686,5.56676412 C6.3874586,6.00369412 5.9262486,6.45033412 5.5038886,6.93095412 C5.1300686,7.36303412 4.8193586,7.84850412 4.4795286,8.30971412 Z M19.4564986,2.54709412 C19.1360986,2.39659412 18.8350986,2.25095412 18.5291986,2.11502412 C17.2572986,1.55672412 15.9173986,1.23630412 14.5385986,1.15377412 C13.6016986,1.10037412 12.6646986,1.11979412 11.7276986,1.27514412 C10.4799986,1.48389412 9.2857586,1.85286412 8.1545886,2.40630412 C7.8827286,2.53738412 7.8827286,2.56165412 8.0380786,2.83352412 C8.6206486,3.83846412 9.2080786,4.84340412 9.7857986,5.84834412 C10.3537986,6.83386412 10.9169986,7.82423412 11.4897986,8.80975412 C12.0286986,9.74191412 12.5675986,10.6691141 13.1064986,11.6012141 C13.2860986,11.9119141 13.4753986,12.2226141 13.6792986,12.5673141 C15.3007986,9.76131412 16.8931986,6.99892412 18.4903986,4.23170412 C16.9611986,3.48406412 15.3735986,3.06170412 13.6792986,3.07626412 C13.6792986,2.87721412 13.6792986,2.70730412 13.6792986,2.53738412 C13.6792986,2.36261412 13.6792986,2.18784412 13.6792986,1.98879412 C15.5920986,1.94510412 17.3543986,2.43543412 19.0486986,3.26074412 C19.1797986,3.02286412 19.3059986,2.79954412 19.4564986,2.54709412 Z M24.2918986,13.1402141 C24.2238986,12.6256141 24.1947986,12.1401141 24.0976986,11.6643141 C23.8597986,10.4895141 23.4422986,9.37771412 22.8353986,8.33884412 C22.0586986,7.01348412 21.0391986,5.91630412 19.7962986,5.02788412 C19.4758986,4.79485412 19.4710986,4.80456412 19.2622986,5.12983412 C19.2185986,5.19780412 19.1797986,5.26576412 19.1408986,5.33373412 C18.6845986,6.12020412 18.2282986,6.90182412 17.7767986,7.68830412 C17.3252986,8.46506412 16.8785986,9.24671412 16.4270986,10.0234141 C15.9707986,10.8148141 15.5095986,11.6061141 15.0531986,12.3974141 C14.9123986,12.6402141 14.7813986,12.8829141 14.6356986,13.1402141 C17.8592986,13.1402141 21.0439986,13.1402141 24.2918986,13.1402141 Z M8.8488286,23.1410141 C12.0772986,24.7043141 15.2716986,24.6897141 18.4855986,23.1459141 C16.8737986,20.3593141 15.2813986,17.6017141 13.6647986,14.7957141 C12.0529986,17.5969141 10.4605986,20.3593141 8.8488286,23.1410141 Z M12.6889986,14.2665141 C9.4508186,14.2665141 6.2709386,14.2665141 3.0910586,14.2665141 C3.1056286,17.2425141 5.0378286,20.8544141 7.9069986,22.5585141 C9.4945086,19.8010141 11.0819986,17.0483141 12.6889986,14.2665141 Z M21.2770986,25.1121141 C21.3595986,25.2577141 21.4323986,25.3985141 21.5197986,25.5344141 C21.7527986,25.8840141 22.0683986,25.9568141 22.4081986,25.6946141 C22.9810986,25.2626141 23.5587986,24.8305141 24.0830986,24.3450141 C24.5782986,23.8790141 25.0200986,23.3546141 25.4618986,22.8352141 C26.4279986,21.7040141 27.1415986,20.4127141 27.6853986,19.0388141 C28.2096986,17.7183141 28.5494986,16.3492141 28.6271986,14.9219141 C28.6465986,14.5772141 28.5009986,14.3199141 28.1853986,14.2665141 C27.9765986,14.2325141 27.7581986,14.2617141 27.5445986,14.2617141 C27.2289986,18.9077141 25.1268986,22.5002141 21.2770986,25.1121141 Z M7.8681586,24.8402141 C11.7519986,26.7190141 15.5969986,26.7336141 19.4564986,24.8402141 C19.3545986,24.6557141 19.2671986,24.4955141 19.1748986,24.3402141 C19.1311986,24.2625141 19.0826986,24.1945141 19.0389986,24.1217141 C15.4512986,25.8500141 11.8684986,25.8500141 8.2905286,24.1217141 C8.1497386,24.3596141 8.0186586,24.5829141 7.8681586,24.8402141 Z M26.1706986,13.1402141 C26.2337986,9.76611412 24.1219986,5.39684412 20.4225986,3.12481412 C20.2817986,3.35784412 20.1409986,3.59572412 20.0050986,3.81419412 C23.3062986,6.07651412 25.1025986,9.16411412 25.3889986,13.1402141 C25.6462986,13.1402141 25.9084986,13.1402141 26.1706986,13.1402141 Z M7.3244286,23.5634141 C4.0474486,21.3108141 2.2269086,18.2280141 1.9453386,14.2665141 C1.6686086,14.2665141 1.4064586,14.2665141 1.1006086,14.2665141 C1.4210186,18.5533141 3.3629286,21.8642141 6.9020586,24.2819141 C7.0477086,24.0343141 7.1787786,23.8110141 7.3244286,23.5634141 Z" id="Shape"></path>
            <path d="M38.9822986,12.9752141 C38.6229986,12.9752141 38.2734986,12.9752141 37.8996986,12.9752141 C37.8996986,12.7762141 37.8996986,12.5868141 37.8996986,12.3975141 C37.8996986,11.9751141 37.7636986,11.6013141 37.5063986,11.2712141 C36.7247986,10.2614141 36.2392986,9.12541412 36.0111986,7.87771412 C35.9674986,7.64953412 35.9625986,7.42136412 35.9382986,7.17862412 C35.1178986,7.17862412 34.3022986,7.17862412 33.5497986,7.17862412 C33.3895986,7.83887412 33.2535986,8.48455412 33.0691986,9.11571412 C32.8409986,9.90211412 32.4234986,10.6061141 31.9233986,11.2518141 C31.5058986,11.7906141 31.4815986,12.3975141 31.5349986,13.0480141 C33.6371986,13.0480141 35.7343986,13.0480141 37.8559986,13.0480141 C37.8559986,13.4218141 37.8559986,13.7714141 37.8559986,14.1501141 C35.7586986,14.1501141 33.6516986,14.1501141 31.5301986,14.1501141 C31.5301986,15.3346141 31.5301986,16.4852141 31.5301986,17.6552141 C33.6419986,17.6552141 35.7489986,17.6552141 37.8850986,17.6552141 C37.8850986,16.5386141 37.8850986,15.4220141 37.8850986,14.2860141 C38.2588986,14.2860141 38.6035986,14.2860141 38.9919986,14.2860141 C38.9919986,14.3685141 38.9919986,14.4511141 38.9919986,14.5336141 C38.9919986,18.3203141 38.9919986,22.1070141 38.9919986,25.8938141 C38.9919986,26.7482141 38.3219986,27.3793141 37.5257986,27.3599141 C37.1034986,27.3502141 36.6713986,27.4230141 36.2732986,27.2143141 C36.1276986,27.1366141 36.0062986,27.0152141 35.8654986,26.9278141 C35.7974986,26.8841141 35.6906986,26.8502141 35.6227986,26.8744141 C35.0352986,27.0832141 34.4478986,27.0832141 33.8604986,26.8987141 C33.6953986,26.8453141 33.5982986,26.8599141 33.4672986,26.9861141 C33.2050986,27.2385141 32.8749986,27.3696141 32.5108986,27.3599141 C32.1127986,27.3502141 31.7049986,27.3502141 31.3213986,27.2580141 C30.7970986,27.1317141 30.4183986,26.5734141 30.4183986,26.0394141 C30.4183986,21.4274141 30.4135986,16.8153141 30.4232986,12.2033141 C30.4232986,11.5139141 30.7582986,10.9411141 31.1611986,10.3973141 C31.7728986,9.57201412 32.1612986,8.64961412 32.3166986,7.63011412 C32.3506986,7.41165412 32.4040986,7.18833412 32.4040986,6.96986412 C32.4040986,6.85820412 32.3166986,6.73683412 32.2389986,6.63974412 C32.0156986,6.36787412 31.9185986,6.05716412 31.9282986,5.70762412 C31.9428986,5.25127412 31.8991986,4.78036412 31.9816986,4.33372412 C32.1272986,3.54239412 32.7438986,3.22198412 33.3652986,3.20741412 C34.2633986,3.18314412 35.1615986,3.18314412 36.0596986,3.20741412 C36.9432986,3.22683412 37.5112986,3.91621412 37.4918986,4.66384412 C37.4820986,5.13961412 37.4966986,5.61538412 37.4286986,6.08629412 C37.3947986,6.32903412 37.2005986,6.54750412 37.0840986,6.78053412 C37.0500986,6.84849412 36.9966986,6.93102412 37.0111986,6.99414412 C37.1228986,7.57671412 37.2150986,8.16899412 37.3801986,8.73700412 C37.6034986,9.49431412 38.0549986,10.1352141 38.5064986,10.7760141 C38.9725986,11.4217141 39.0404986,12.1742141 38.9822986,12.9752141 Z M36.5693986,25.0539141 C36.5693986,25.2044141 36.5742986,25.3209141 36.5693986,25.4423141 C36.5402986,26.2239141 36.6179986,26.2773141 37.3947986,26.2579141 C37.7782986,26.2482141 37.8996986,26.1316141 37.8996986,25.7578141 C37.8996986,23.5149141 37.8996986,21.2769141 37.8996986,19.0340141 C37.8996986,18.9466141 37.8996986,18.8641141 37.8996986,18.7767141 C35.7537986,18.7767141 33.6468986,18.7767141 31.5447986,18.7767141 C31.5349986,18.8058141 31.5252986,18.8204141 31.5252986,18.8349141 C31.5252986,21.1992141 31.5252986,23.5586141 31.5204986,25.9229141 C31.5204986,26.1171141 31.6515986,26.2142141 31.7923986,26.2336141 C32.0447986,26.2676141 32.3117986,26.2676141 32.5642986,26.2385141 C32.7098986,26.2239141 32.8118986,26.1171141 32.8069986,25.9326141 C32.7923986,25.6462141 32.8020986,25.3549141 32.8020986,25.0587141 C33.2438986,25.0587141 33.6565986,25.0587141 34.0837986,25.0587141 C34.1420986,25.4034141 33.9284986,25.8986141 34.5401986,25.9132141 C34.7585986,25.9180141 35.0061986,25.9132141 35.1906986,25.8161141 C35.4867986,25.6559141 35.2489986,25.3063141 35.3654986,25.0587141 C35.7537986,25.0539141 36.1470986,25.0539141 36.5693986,25.0539141 Z M34.6906986,6.06202412 C35.1275986,6.06202412 35.5644986,6.06202412 36.0013986,6.06202412 C36.2586986,6.06202412 36.3994986,5.92123412 36.3994986,5.66393412 C36.3994986,5.35808412 36.3994986,5.05223412 36.3994986,4.74152412 C36.3994986,4.45023412 36.2732986,4.29974412 35.9868986,4.29974412 C35.1372986,4.29003412 34.2925986,4.29003412 33.4429986,4.29974412 C33.1564986,4.30459412 33.0351986,4.45509412 33.0351986,4.74638412 C33.0351986,5.05223412 33.0351986,5.35808412 33.0351986,5.66878412 C33.0351986,5.92123412 33.1807986,6.06202412 33.4380986,6.06202412 C33.8507986,6.06202412 34.2682986,6.06202412 34.6906986,6.06202412 Z" id="Shape"></path>
            <path d="M23.3161986,18.2620141 C23.4084986,19.1601141 22.5005986,19.9806141 21.6169986,19.9369141 C20.7140986,19.8883141 19.9760986,19.2766141 19.9566986,18.2765141 C19.9372986,17.3638141 20.6023986,16.5628141 21.6509986,16.5579141 C22.5539986,16.5482141 23.3744986,17.2765141 23.3161986,18.2620141 Z M22.2189986,18.2328141 C22.2189986,17.9318141 21.9325986,17.6406141 21.6412986,17.6503141 C21.3451986,17.6600141 21.0732986,17.9561141 21.0538986,18.2183141 C21.0295986,18.5435141 21.3257986,18.8300141 21.6461986,18.8300141 C21.9859986,18.8300141 22.2189986,18.5872141 22.2189986,18.2328141 Z" id="Shape"></path>
            <path d="M7.9263686,10.2905141 C7.9700586,11.2226141 7.1544586,11.9800141 6.2611786,11.9605141 C5.2319686,11.9363141 4.5620086,11.2275141 4.5620086,10.2711141 C4.5620086,9.30501412 5.2902286,8.55250412 6.3388586,8.58163412 C7.1253286,8.60104412 8.0040486,9.31471412 7.9263686,10.2905141 Z M6.8291886,10.2711141 C6.8291886,9.93611412 6.5913086,9.68361412 6.2708886,9.68851412 C5.9116386,9.68851412 5.6543386,9.95551412 5.6591886,10.2614141 C5.6640486,10.5624141 5.9456186,10.8682141 6.2369086,10.8634141 C6.5718886,10.8537141 6.8874486,10.5381141 6.8291886,10.2711141 Z" id="Shape"></path>
            <path d="M13.1163986,4.60558412 C13.9610986,4.52790412 14.8203986,5.32408412 14.7815986,6.31931412 C14.7427986,7.25629412 14.0630986,7.96994412 13.0872986,7.96994412 C12.1842986,7.96994412 11.4317986,7.32425412 11.4026986,6.30475412 C11.3783986,5.39205412 12.1308986,4.52790412 13.1163986,4.60558412 Z M13.1017986,5.70276412 C12.8396986,5.64450412 12.5386986,5.92122412 12.4949986,6.26106412 C12.4609986,6.52321412 12.8396986,6.91160412 13.0920986,6.87761412 C13.4513986,6.82907412 13.6698986,6.63002412 13.6698986,6.27077412 C13.6746986,5.94064412 13.4319986,5.70276412 13.1017986,5.70276412 Z" id="Shape"></path>
            <path d="M20.5099986,11.3828141 C19.5535986,11.3828141 18.8205986,10.6449141 18.8205986,9.68361412 C18.8205986,8.74668412 19.5632986,8.00390412 20.5099986,8.00390412 C21.4566986,8.00390412 22.1994986,8.75639412 22.1994986,9.70791412 C22.1994986,10.6400141 21.4469986,11.3828141 20.5099986,11.3828141 Z M20.5002986,10.2856141 C20.7915986,10.2905141 21.0876986,10.0138141 21.1022986,9.71761412 C21.1168986,9.41661412 20.8255986,9.11081412 20.5196986,9.10108412 C20.2283986,9.09623412 19.9322986,9.37291412 19.9176986,9.66911412 C19.9031986,9.97011412 20.1944986,10.2808141 20.5002986,10.2856141 Z" id="Shape"></path>
            <path d="M13.6548986,22.2089141 C12.7713986,22.2478141 11.9654986,21.4807141 11.9751986,20.5195141 C11.9848986,19.5679141 12.6984986,18.8348639 13.6645986,18.8348639 C14.5724986,18.8300141 15.3590414,19.5388141 15.3590414,20.5632141 C15.3637986,21.4127141 14.5627986,22.2672141 13.6548986,22.2089141 Z M13.6743986,21.1117141 C13.9850986,21.1069141 14.2665986,20.8156141 14.2568986,20.5049141 C14.2520986,20.2185141 13.9558986,19.9223141 13.6840986,19.9272141 C13.3684986,19.9272141 13.0723986,20.2136141 13.0723986,20.5146141 C13.0723986,20.8205141 13.3684986,21.1166141 13.6743986,21.1117141 Z" id="Shape"></path>
            <path d="M7.4020486,15.4317141 C8.3244586,15.3783141 9.0963686,16.1987141 9.0866586,17.0872141 C9.0769486,18.0970141 8.3730086,18.7863141 7.4020486,18.8009141 C6.4213886,18.8106141 5.6931686,18.0241141 5.7077286,17.0726141 C5.7222986,16.1890141 6.4699286,15.3783141 7.4020486,15.4317141 Z M7.3923386,16.5289141 C7.0816386,16.5337141 6.8097686,16.7910141 6.8097686,17.0969141 C6.8097686,17.4124141 7.1059086,17.7231141 7.3874886,17.7134141 C7.6884786,17.6989141 7.9991886,17.3882141 7.9894786,17.0920141 C7.9894786,16.8104141 7.6836286,16.5289141 7.3923386,16.5289141 Z" id="Shape"></path>
        </g>
    </g>
</svg>