<?xml version="1.0" encoding="UTF-8"?>
<svg width="26px" height="32px" viewBox="0 0 26 32" version="1.1" xmlns="http://www.w3.org/2000/svg" xmlns:xlink="http://www.w3.org/1999/xlink">
    <title>complementos</title>
    <g id="Page-1" stroke="none" stroke-width="1" fill="none" fill-rule="evenodd">
        <g id="complementos" transform="translate(0.000000, 0.671631)" fill="#2D5D2A" fill-rule="nonzero">
            <path d="M12.2267,13.183769 C12.1391,13.183769 12.0734,13.183769 12.0022,13.183769 C9.19232,13.183769 6.37699,13.183769 3.56714,13.183769 C3.36448,13.183769 3.36448,13.183769 3.36448,12.986669 C3.36448,12.696369 3.36448,12.400569 3.36448,12.110269 C3.36448,12.060969 3.36448,12.011669 3.36448,11.951469 C6.76588,11.951469 10.1454,11.951469 13.5413,11.951469 C13.5249,12.274569 13.5084,12.586769 13.4865,12.898969 C13.4427,13.589169 13.3989,14.284769 13.3605,14.974869 C13.3112,15.812869 13.2565,16.650969 13.2072,17.488969 C13.1688,18.146269 13.1305,18.798069 13.0867,19.455369 C13.0374,20.304269 12.9826,21.158769 12.9333,22.007769 C12.895,22.675969 12.8566,23.344169 12.8128,24.017869 C12.7635,24.850469 12.7087,25.682969 12.6594,26.515569 C12.6266,27.046869 12.5882,27.583669 12.5663,28.114969 C12.528,29.150169 11.9091,29.905969 10.9012,30.130569 C10.7479,30.163469 10.5836,30.168869 10.4247,30.168869 C8.064,30.168869 5.70328,30.168869 3.34804,30.174369 C2.26354,30.174369 1.47481,29.484269 1.2831,28.596969 C1.2119,28.279269 1.20642,27.945169 1.18451,27.616469 C1.11878,26.690869 1.05853,25.759669 0.998282002,24.828569 C0.948987002,24.083669 0.899691002,23.333269 0.850395002,22.588369 C0.790145002,21.695569 0.729895002,20.802769 0.669645002,19.909969 C0.620349002,19.170469 0.571053002,18.436569 0.521758002,17.697069 C0.472462002,16.930269 0.417689002,16.168969 0.368393002,15.402169 C0.330052002,14.799569 0.291711002,14.202569 0.247893002,13.600069 C0.198597002,12.833269 0.143824002,12.060969 0.094528302,11.294169 C0.061664602,10.795669 0.017846202,10.302759 0.00141428204,9.804319 C-0.036926798,8.719819 0.707986002,7.848929 1.78701,7.701039 C1.89656,7.684609 2.00611,7.690089 2.11565,7.690089 C5.30344,7.690089 8.48575,7.690089 11.6735,7.690089 C12.4787,7.690089 13.0867,8.018719 13.5084,8.703389 C13.7001,9.015589 13.7823,9.355179 13.7823,9.722159 C13.7823,9.760499 13.7768,9.804319 13.7659,9.859099 C13.3605,9.831709 12.9607,9.804319 12.5554,9.776939 C12.5499,9.716689 12.5444,9.667389 12.5335,9.612619 C12.4623,9.234679 12.1884,8.988209 11.805,8.944389 C11.7393,8.938909 11.679,8.933429 11.6133,8.933429 C8.46384,8.933429 5.31439,8.933429 2.16495,8.933429 C2.04445,8.933429 1.91847,8.938909 1.79797,8.977249 C1.43099,9.081319 1.2119,9.431869 1.23928,9.815279 C1.29406,10.549269 1.33787,11.283169 1.38717,12.011669 C1.44742,12.920869 1.50767,13.830169 1.5734,14.744869 C1.62269,15.467869 1.66651,16.190869 1.71581,16.913869 C1.77058,17.697069 1.81988,18.480369 1.87465,19.263569 C1.92395,20.003069 1.97324,20.736969 2.02254,21.476469 C2.08279,22.380169 2.14304,23.278469 2.20329,24.182269 C2.25258,24.921669 2.30188,25.655669 2.35117,26.395069 C2.38952,26.997569 2.42238,27.594569 2.47168,28.197069 C2.50454,28.602369 2.8277,28.903669 3.22754,28.925569 C3.25493,28.925569 3.28232,28.925569 3.3097,28.925569 C5.6978,28.925569 8.08591,28.925569 10.4685,28.925569 C10.9177,28.925569 11.2792,28.624269 11.3066,28.224469 C11.3285,27.912269 11.3449,27.594569 11.3613,27.282369 C11.4106,26.433369 11.4654,25.578969 11.5147,24.729969 C11.553,24.056269 11.5914,23.382569 11.6352,22.708869 C11.6845,21.881769 11.7393,21.049169 11.7886,20.222169 C11.8269,19.559369 11.8652,18.902069 11.9091,18.239369 C11.9584,17.390369 12.0131,16.546869 12.0624,15.697869 C12.1008,15.029669 12.1446,14.361469 12.1829,13.687769 C12.2048,13.528869 12.2158,13.370069 12.2267,13.183769 Z" id="Path"></path>
            <path d="M16.2854,19.816869 C16.4059,20.227669 16.521,20.611069 16.6305,20.989069 C16.1868,21.175269 15.7596,21.361469 15.3269,21.542269 C15.3269,21.558669 15.3269,21.580569 15.3324,21.596969 C15.3762,21.624369 15.4146,21.651769 15.4638,21.679169 C16.1321,22.046169 16.8496,22.248769 17.5945,22.385769 C18.449,22.539069 19.3089,22.582969 20.1688,22.550069 C21.2753,22.500769 22.3652,22.330969 23.3895,21.892769 C23.5757,21.816069 23.751,21.712069 23.9591,21.602469 C23.5045,21.312169 23.028,21.142369 22.5296,20.989069 C22.6391,20.594669 22.7487,20.205769 22.8582,19.816869 C22.8856,19.816869 22.902,19.811369 22.9184,19.816869 C23.7236,20.046969 24.485,20.364569 25.1258,20.923269 C25.5092,21.257369 25.7995,21.657269 25.8871,22.172169 C25.931,22.424069 25.9255,22.681469 25.931,22.933469 C25.931,23.409969 25.92,23.881069 25.9145,24.357569 C25.9091,24.861469 25.8707,25.376369 25.9255,25.874769 C25.9748,26.312969 26.035,26.756669 25.9748,27.189369 C25.9255,27.528969 25.9529,27.879469 25.8652,28.213569 C25.7502,28.662769 25.4928,29.024269 25.1532,29.325469 C24.5835,29.840369 23.8989,30.147069 23.1759,30.377069 C22.3433,30.645469 21.4889,30.809869 20.618,30.842669 C19.9278,30.870069 19.2322,30.881069 18.5421,30.837169 C17.3152,30.755069 16.1266,30.503069 15.0147,29.938969 C14.5546,29.703369 14.1383,29.413069 13.8097,29.007769 C13.4975,28.624369 13.3387,28.191669 13.3441,27.698769 C13.3496,25.989769 13.3496,24.286369 13.3441,22.577469 C13.3441,22.029669 13.5304,21.564169 13.8973,21.164269 C14.3684,20.643969 14.9709,20.320769 15.6117,20.068869 C15.8253,19.970269 16.0499,19.899069 16.2854,19.816869 Z M14.6915,26.110269 C14.7354,26.104869 14.7682,26.099369 14.8011,26.099369 C15.7487,26.099369 16.7017,26.082869 17.6493,26.110269 C18.4271,26.132169 19.0296,26.504669 19.4294,27.183869 C19.4842,27.271469 19.5499,27.353669 19.6266,27.424869 C19.9224,27.693269 20.2784,27.709669 20.6454,27.638469 C20.9192,27.589169 21.1219,27.424869 21.2643,27.183869 C21.6587,26.504669 22.2612,26.143169 23.0389,26.104869 C23.5319,26.077469 24.0249,26.093869 24.5178,26.099369 C24.6383,26.099369 24.6876,26.071969 24.6821,25.940469 C24.6712,25.589969 24.6821,25.239369 24.6767,24.888869 C24.6767,24.845069 24.6712,24.806669 24.6657,24.746469 C23.0937,25.661169 21.3903,25.918569 19.6321,25.918569 C17.8739,25.918569 16.1649,25.655669 14.593,24.740969 C14.593,24.817669 14.593,24.872469 14.593,24.927169 C14.593,25.836469 14.5984,26.745669 14.5875,27.649469 C14.582,27.928769 14.6806,28.147869 14.8778,28.328569 C15.0038,28.443669 15.1462,28.553169 15.2886,28.646269 C15.7541,28.947569 16.2635,29.144769 16.7948,29.281669 C18.5914,29.741769 20.3934,29.758169 22.2009,29.347369 C22.8965,29.188569 23.5538,28.942069 24.1454,28.536769 C24.5178,28.279269 24.7369,27.950669 24.6767,27.474169 C24.6657,27.364569 24.6328,27.331769 24.5288,27.337169 C24.107,27.342669 23.6798,27.337169 23.258,27.337169 C22.8363,27.337169 22.4912,27.474169 22.294,27.879469 C22.2666,27.934269 22.2338,27.978069 22.1954,28.027369 C21.7025,28.673669 21.0397,28.953069 20.24,28.920169 C19.402,28.887269 18.7612,28.514869 18.3339,27.786369 C18.2847,27.704169 18.2189,27.632969 18.1532,27.567269 C17.9505,27.381069 17.6931,27.337169 17.4302,27.337169 C16.5757,27.337169 15.7213,27.337169 14.8723,27.337169 C14.8175,27.337169 14.7573,27.331769 14.7025,27.331769 C14.6915,26.915469 14.6915,26.515669 14.6915,26.110269 Z M24.6712,22.621269 C23.0937,23.535969 21.3848,23.793369 19.6266,23.798869 C17.8684,23.798869 16.1649,23.535969 14.6094,22.632269 C14.5656,22.917069 14.6422,23.152569 14.8394,23.333269 C14.9818,23.464769 15.1352,23.590769 15.2995,23.694769 C15.7925,24.012469 16.3347,24.215169 16.8989,24.352069 C18.5695,24.768369 20.2565,24.790269 21.9435,24.456169 C22.6501,24.319269 23.3292,24.105569 23.9427,23.716769 C24.1399,23.590769 24.3206,23.431869 24.4904,23.267569 C24.6602,23.097769 24.6876,22.873269 24.6712,22.621269 Z" id="Shape"></path>
            <path d="M19.506,18.310569 C20.2783,18.321469 20.9137,18.398169 21.4998,18.682969 C21.6696,18.765169 21.8339,18.869269 21.9763,18.995169 C22.2556,19.236169 22.4254,19.542969 22.4035,19.931869 C22.3981,20.079669 22.3981,20.222169 22.4035,20.369969 C22.4309,20.862969 22.1844,21.213469 21.801,21.481869 C21.4231,21.744769 20.9904,21.881769 20.5413,21.952969 C19.7197,22.084369 18.9035,22.062469 18.1093,21.799569 C17.715,21.668169 17.3535,21.481869 17.096,21.136869 C16.9427,20.928669 16.855,20.704169 16.8605,20.435769 C16.866,20.282369 16.866,20.123569 16.8605,19.970169 C16.8331,19.477169 17.0741,19.126669 17.463,18.858269 C17.8464,18.589869 18.2901,18.458469 18.7502,18.387269 C19.046,18.337969 19.3417,18.326969 19.506,18.310569 Z M19.6211,20.786269 C20.0373,20.775369 20.4372,20.736969 20.8151,20.600069 C21.1547,20.474069 21.1492,20.463169 21.1657,20.112569 C21.1711,19.942769 21.1054,19.866069 20.9685,19.800369 C20.6289,19.646969 20.2729,19.586769 19.9059,19.564869 C19.3855,19.531969 18.8762,19.581269 18.3887,19.767469 C18.186,19.844169 18.0874,19.953769 18.1039,20.194769 C18.1148,20.386469 18.1751,20.485069 18.3449,20.556269 C18.7502,20.731469 19.1884,20.769869 19.6211,20.786269 Z" id="Shape"></path>
            <path d="M6.27831,6.895919 C6.27831,6.830189 6.27831,6.775419 6.27831,6.720639 C6.27831,5.636139 6.27284,4.546159 6.27831,3.461649 C6.28379,2.727699 6.59052,2.136149 7.20945,1.747259 C8.1625,1.150232 9.12651,0.586071 10.1069,4.4408921e-16 C10.3206,0.3505469 10.5287,0.701094 10.7478,1.062596 C10.704,1.095459 10.6602,1.122846 10.6218,1.144755 C9.73997,1.670579 8.8636,2.207349 7.98175,2.727699 C7.66407,2.913919 7.51618,3.182309 7.51618,3.549289 C7.52166,4.606409 7.51618,5.668999 7.52166,6.726119 C7.52166,6.863059 7.48332,6.906869 7.34639,6.901399 C6.99584,6.890439 6.64529,6.895919 6.27831,6.895919 Z" id="Path"></path>
        </g>
    </g>
</svg>