<?xml version="1.0" encoding="UTF-8"?>
<svg width="380px" height="247px" viewBox="0 0 380 247" version="1.1" xmlns="http://www.w3.org/2000/svg" xmlns:xlink="http://www.w3.org/1999/xlink">
    <title>Group 40</title>
    <defs>
        <polygon id="path-1" points="0.000157234276 0.311138498 130.646554 0.311138498 130.646554 244.424883 0.000157234276 244.424883"></polygon>
    </defs>
    <g id="Sobre-KFC" stroke="none" stroke-width="1" fill="none" fill-rule="evenodd">
        <g transform="translate(-294.000000, -1154.000000)" id="Group-40">
            <g transform="translate(294.000000, 1154.610013)">
                <g id="Group-3" transform="translate(0.000000, 0.389987)">
                    <mask id="mask-2" fill="white">
                        <use xlink:href="#path-1"></use>
                    </mask>
                    <g id="Clip-2"></g>
                    <path d="M23.2387075,147.9421 C23.3460467,152.470574 25.980474,164.426689 41.2214872,175.773755 C47.577007,180.504095 50.4907471,182.638931 51.3286855,183.217499 L51.3246458,183.252006 C51.7441921,183.54359 49.0716767,183.475151 48.3370379,183.545891 C47.1424564,183.659764 43.0797251,183.292264 39.8260775,183.892112 C36.8921392,184.431572 37.290333,185.137241 36.9989013,187.253097 C36.7686414,188.929565 36.984474,191.586607 36.9002185,193.853719 C36.8130775,196.117957 36.6884256,197.72886 37.6504388,198.824459 C38.5997559,199.902229 39.1999322,200.074764 43.228615,199.826313 C47.0593551,199.592816 57.6680467,199.585914 58.9468837,199.326536 C60.5875577,198.991243 60.3244035,199.584764 59.3797031,201.606877 C57.7592273,205.072534 52.4747912,220.962452 44.2633419,236.061008 C43.1114652,238.176865 46.3489542,237.176161 49.111496,238.504107 C54.1062317,240.904647 53.9429145,241.572358 55.2552229,239.067722 C56.6771789,236.353168 63.883333,219.451619 64.9988529,214.232428 C65.1437031,213.550914 65.4374432,212.961994 65.5499762,213.983978 C65.6301921,214.721278 65.7358,236.073086 65.1385093,242.80886 C65.1067692,243.166583 65.193333,243.536959 65.4443683,243.794612 C65.8038969,244.163837 66.3480952,244.316243 66.8091921,244.42494 C66.8143859,244.42494 66.8190026,244.42494 66.8190026,244.42494 C69.3028088,243.599647 72.3077295,242.992323 74.8579013,243.412158 C75.0829674,243.385128 75.2988,243.336243 75.5065533,243.27183 C75.6433242,243.158532 75.766822,243.024529 75.853963,242.864647 C76.0524828,242.506349 76.1540511,242.100316 76.2440775,241.703485 C76.2510026,241.673004 76.2573507,241.641947 76.2642758,241.609741 C76.3877736,241.0421 76.4893419,240.468133 76.5510907,239.889565 C76.5874476,239.54737 76.6111084,239.204025 76.6330379,238.86068 C76.6607383,238.417264 76.6797824,237.970973 76.695941,237.526407 C76.7144079,236.989248 76.7265269,236.452088 76.7346062,235.914928 C76.7438396,235.293802 76.7478793,234.6744 76.7478793,234.054424 C76.7478793,233.362558 76.7415313,232.668966 76.7305665,231.975374 C76.7201789,231.21967 76.702289,231.472147 76.6797824,230.717018 C76.6566987,229.907827 76.627267,229.098062 76.5926414,228.290022 C76.5562846,227.436548 76.5135797,226.584224 76.465104,225.730175 C76.415474,224.844494 76.3577648,223.957663 76.2948617,223.071982 C76.2290731,222.160996 76.1569366,221.250011 76.0767207,220.340175 C75.9947736,219.414236 75.9064784,218.490022 75.8083727,217.565234 C75.710267,216.635844 75.6035048,215.705879 75.4869322,214.77879 C75.3703595,213.852851 75.2439762,212.929788 75.1072053,212.00845 C74.9733198,211.097464 74.8273154,210.188778 74.6691921,209.281818 C74.5133771,208.396137 74.3471744,208.01541 74.1665445,207.134905 C73.9905313,206.282581 73.801822,205.433133 73.5963771,204.58771 C73.3995885,203.779095 73.1877956,202.973931 72.9558044,202.175093 C72.7711348,201.540163 72.5749233,200.908684 72.3648617,200.27548 C72.3273507,200.174835 72.1571084,199.309283 72.179615,199.197135 C72.2442493,198.884271 72.6384035,199.110292 73.0683374,199.027475 C73.0683374,199.027475 73.2708969,198.988942 73.3845841,198.969964 C76.1113463,198.605339 80.8590863,198.848614 81.93017,198.894048 C82.9868264,198.924529 88.3820643,199.437534 89.9032802,199.576712 C91.4112229,199.721067 93.2463771,200.070738 93.165007,195.504881 C93.1430775,194.286208 93.139615,193.562135 93.1430775,192.425703 C93.1448088,192.272147 93.1448088,192.114565 93.1448088,191.963309 C93.1488485,191.6746 93.1511568,191.391642 93.1540423,191.119036 C93.1580819,190.950527 93.1580819,190.798696 93.1621216,190.639388 C93.1632758,190.482957 93.165007,190.32825 93.1673154,190.178719 C93.1690467,190.039541 93.1730863,189.896912 93.1742405,189.766935 C93.1823198,189.52021 93.1875137,189.282112 93.1984784,189.065867 C93.1996326,188.996278 93.1996326,188.934741 93.2036722,188.868027 C93.2065577,188.703543 93.2117515,188.552863 93.2198308,188.412534 C93.2227163,188.340644 93.2250247,188.272205 93.2290643,188.205492 C93.2342581,188.07609 93.2423374,187.971994 93.2481084,187.8771 C93.2504167,187.846043 93.2504167,187.802335 93.2544564,187.775304 C93.2665753,187.637851 93.2746546,187.489471 93.2798485,187.327863 C93.3150511,186.21386 93.1702009,184.172769 91.0522714,183.628708 C88.6140555,183.022534 84.3256811,182.876454 80.4707031,183.210597 C79.9316987,183.258907 79.8139718,183.210597 79.9784432,183.061067 L79.9824828,183.02656 C80.813496,182.435914 86.3807075,179.369964 92.7495004,173.690104 C99.7542493,167.427076 103.097923,164.097147 105.239514,159.565797 C105.239514,159.565797 112.907342,144.741572 112.522421,132.186759 C112.444514,129.652792 112.854249,129.864435 114.43606,129.91102 C114.912161,129.924248 116.723655,129.797722 117.698364,129.154741 C120.951434,128.415715 123.825355,117.349306 123.825355,117.349306 C123.825355,117.349306 128.709289,100.544377 129.89406,93.6722993 C130.947831,87.5588016 130.69795,83.9873228 126.956659,82.1716772 L126.329359,81.8185552 C126.047161,81.6598228 125.908659,81.3314308 125.994069,81.0197171 C126.065051,80.7603392 126.142381,80.4538016 126.181047,80.2249049 C128.011007,73.8922876 131.28139,65.8774519 130.538672,62.6280387 C130.409404,61.6951984 129.616478,61.3915364 129.340628,61.2057735 C128.959747,60.948696 127.509514,59.336642 127.105549,58.2030857 C127.047263,58.038027 127.025333,57.8654918 127.010329,57.6912312 C125.977333,45.7333908 121.714351,30.7326045 109.013122,17.6682383 C108.994655,17.6561608 108.140558,16.8751514 107.618866,16.4018298 C106.532201,15.4252805 105.140254,14.2112077 103.539976,13.0155387 C100.158214,10.4959495 97.4597295,8.56182981 91.8965577,5.79494014 C91.4689322,5.58387207 87.2919366,3.69001056 81.1193551,2.18550352 C80.5416855,2.03079695 79.9582449,1.88069131 79.3713419,1.74323826 C78.4653066,1.53101995 77.0485445,1.27049178 75.4344167,1.05022183 C71.6313771,0.456700704 67.4087912,0.139235915 63.0176943,0.40724061 L63.0176943,0.410116197 C62.4948485,0.435421362 61.8837075,0.4664777 61.7215445,0.468778169 C61.4589674,0.472803991 61.1836943,0.48603169 60.9159233,0.49695892 C60.6169894,0.50788615 60.3261348,0.514212441 60.0150819,0.526289906 C59.085963,0.570573944 57.8607956,0.710902582 56.5738793,0.893789906 C54.4975004,1.19285094 52.2699233,1.60693545 50.8970203,1.92785094 C49.3608,2.300527 47.2901921,2.73071479 44.7013551,3.46916549 C43.6383507,3.77915376 42.5689982,4.10927113 41.5042626,4.4526162 C41.2053286,4.54751056 40.9052405,4.63952934 40.6091921,4.73557394 C39.4602009,5.11227582 38.3048617,5.50393075 37.1374035,5.92204108 C36.2902317,6.21880164 32.6909057,7.77219366 31.9077912,8.13164202 C31.5326811,8.30532746 31.0156062,8.52559742 30.4575577,8.75161854 C27.9200819,9.55275704 27.3868485,11.0141303 27.2956678,11.8187195 C27.2368044,12.33575 27.1185004,12.8470293 26.897474,13.3174754 C23.24217,21.0602805 14.6440687,21.8096585 11.2299894,21.9793181 C10.3372273,22.0218768 9.54776476,22.1530035 9.83054009,23.0174049 C10.5582537,25.2402336 14.5800115,29.3856796 17.0407339,30.137358 C17.0061084,30.4916303 14.932615,30.9402218 14.4980643,31.0552453 C13.5071965,31.3128979 9.43234626,30.9563251 9.23151806,30.9965833 C9.21420529,30.9977336 9.19920088,31.0006092 9.18188811,31.0017594 C4.56226256,31.3888134 3.14261498,34.5260786 2.72768546,36.012757 C2.59899383,36.4740012 2.67343877,36.9709026 2.93717004,37.3711843 C3.95689251,38.9211256 5.03028458,40.182358 5.83879119,42.2274754 C5.84802467,42.2487547 5.85610396,42.2711843 5.86533744,42.294189 C6.07482203,42.8324988 6.26641674,43.4254448 6.43377357,44.0908556 C6.5318793,44.9673345 7.23535507,45.8794707 6.3466326,47.5973462 C4.77001586,50.6420176 0.831359471,51.5932617 0.241570925,54.617804 C-0.596944493,58.9168063 0.8908,61.7302805 2.52397181,68.8370059 C3.64353128,73.70825 4.85254009,78.7434026 5.71817885,81.0277688 C5.76376916,81.1479683 5.69278678,81.2727688 5.56640352,81.2969237 C5.22014802,81.3630622 4.6205489,81.4878627 4.41798943,81.5563016 C2.13674273,82.4609613 1.41941674,84.2518768 1.15914802,87.7531913 C0.586672247,95.4959965 6.32412599,107.441184 8.10099383,117.674823 C8.70059295,121.127827 10.2962537,126.661607 12.9526106,128.926994 C13.5654828,129.449776 14.8483595,129.785069 15.643593,129.922522 C17.7188176,130.281971 18.6208132,128.973004 18.7402714,131.050327 C18.7650863,131.482816 18.912822,132.648579 18.9318661,133.307663 C19.2896634,140.652487 23.2387075,147.9421 23.2387075,147.9421 M26.8143727,24.9544002 C27.2662361,24.2567829 28.3638661,23.2388251 29.4591877,22.4509143 C30.6076018,21.6319472 36.2579145,17.4134613 41.5059938,15.8209613 C42.4789718,15.5311021 42.7282758,15.3855974 43.3492273,15.2372171 C44.1358044,15.0324754 44.8035004,13.3439308 43.1651348,13.0983556 C41.4471304,12.8499049 40.7471172,12.9620528 39.8301172,12.9913838 C38.9148485,13.0115129 38.4722185,12.5226631 39.1370291,11.8037664 C39.8128044,11.081419 41.0287383,10.3452688 43.1691744,9.48891901 C47.8407383,7.63474061 56.1220159,6.64323826 59.9839189,6.30161854 C65.0230907,5.86855516 65.6330775,5.88465845 68.9103859,6.13598474 C71.9828264,6.36660681 74.3904564,6.93712324 75.5325225,7.1378392 C81.3138352,8.17937676 87.9757912,10.8484965 93.8990687,14.0881326 C97.0170996,15.9319589 100.021443,17.990304 102.817456,20.1625223 C111.304179,26.7550927 121.050694,39.2961021 119.628161,65.7077923 C119.45965,68.8260786 119.088003,70.5560317 118.884289,71.3082852 C118.671342,72.0731913 117.656236,73.3787077 117.118963,71.6510552 C115.365756,66.000527 113.111056,56.0400692 107.979549,48.1747641 C107.265108,47.0780153 106.163439,47.1792359 106.271932,48.3346467 C106.312329,48.8171702 106.549514,53.8546232 106.424862,54.8282969 C105.593848,61.3167711 107.587126,58.7897054 110.525104,65.7509261 C111.435179,67.9041655 112.606677,72.1617594 112.900417,74.9067946 C112.97717,75.5963603 113.070082,76.3963486 113.086818,77.1647054 C113.10817,78.1343533 112.623989,78.1987664 112.623989,78.1987664 C110.614553,78.191865 107.10987,77.2406209 105.219893,77.1808087 C103.069646,77.1123697 88.1460335,76.9628392 82.5378485,77.4022289 C76.9238925,77.8295411 73.8658793,79.8418768 70.6878308,82.4345059 C70.1609454,82.8652688 69.410148,83.2667007 68.9871392,83.4771937 C68.7747692,83.5830153 68.5387383,83.6152218 68.3044388,83.5743885 C68.0487868,83.5295293 67.6292405,83.4507383 66.9655841,83.3132852 C65.5955665,83.0332031 63.9387339,82.9222054 62.598148,83.3311138 C61.2604476,83.7290951 60.6302626,84.0735904 59.1852229,83.2373697 C57.1261568,82.0394002 53.9694608,77.2498228 42.9510335,77.1618298 C36.7068925,77.1123697 28.519104,77.0284026 23.697496,77.2394707 C22.1399233,77.3073345 21.3268,77.4827453 20.927452,77.4718181 C20.8939806,77.2906561 20.8853242,77.0364542 20.8833013,76.9869941 C20.8022229,68.2181796 26.5437163,70.1620763 27.2016018,67.8840364 C28.8422758,62.2053275 29.2260423,48.5445646 39.1774256,40.1582031 C43.9349762,36.1502101 46.4095489,35.9817007 50.8248837,35.9817007 C55.5835885,35.9817007 60.2257207,37.2187782 62.5929542,38.3879918 C64.4771612,39.3162312 65.411474,39.937358 66.1518837,39.3909965 C66.8917163,38.830257 68.8717207,37.0399167 69.6888837,36.4268415 C70.5095093,35.7988134 70.1996106,34.8251397 69.4251524,34.1879096 C68.6812802,33.586912 61.6211304,24.737581 50.7966062,22.9547171 C48.3168396,22.5429331 46.4857251,22.1673815 44.2350643,22.1622054 C43.0162449,22.1167711 41.9359278,22.1115951 39.1075974,22.4537899 C34.9658044,22.9547171 29.5503683,25.252311 26.0647295,26.6297171 C25.8760203,26.4301514 26.5973859,25.2655387 26.8143727,24.9544002 M112.074597,81.9243768 C111.626774,82.4063251 111.231465,82.116466 110.308117,82.3447876 C109.588483,82.5201984 109.109496,82.925081 108.44584,82.8658439 C107.398994,82.7709495 106.884227,81.5246702 107.44343,80.7074284 C108.309646,79.446196 109.529042,80.5440951 110.51587,80.7166303 C110.99832,80.8005974 111.34573,80.6591185 111.828179,80.8316538 C112.309474,81.0013134 112.375263,81.4458791 112.074597,81.9243768 M97.2490907,86.3366772 C97.2490907,86.3366772 95.2760115,84.9943533 94.6458264,83.9027805 C94.3336194,83.3615951 94.4046018,82.9112782 95.2396546,82.9049519 C98.1966767,82.8738955 100.906126,82.8048815 102.224782,83.9068063 C103.183333,84.7108204 103.210456,86.3913134 102.739549,87.4759847 C102.195351,88.7147876 101.112148,88.3633908 100.492928,88.2748228 C99.8737075,88.182804 97.2490907,86.3366772 97.2490907,86.3366772 M98.5521656,91.5938251 C97.992963,91.8762077 95.884267,91.1705387 95.3014035,90.8444472 C94.1350996,90.1928392 93.3040863,89.7315951 91.7343947,88.3961725 C90.6938969,87.5196937 88.7975709,87.1067594 87.0010819,87.1924519 C85.6258705,87.2591655 84.257007,87.5542007 83.2009278,87.7986256 C82.16043,88.0499519 82.0802141,87.1067594 82.3901128,86.7501866 C82.7023198,86.3959143 84.1646722,85.061642 87.3536855,84.2294472 C87.818822,84.1075223 88.716778,84.1477805 89.1686414,84.1972406 C90.4999938,84.3444707 92.0921921,85.2272758 93.2371436,86.3361021 C94.3815181,87.45298 96.6979674,89.4193063 97.9502581,90.1796115 C98.5452405,90.5361843 99.8737075,90.9209378 98.5521656,91.5938251 M52.9774388,113.679482 C53.3098441,114.288532 53.4171833,115.313391 53.321963,115.735527 C53.2244344,116.253708 51.3973595,116.931196 49.878452,114.668109 C48.36243,112.41825 49.073985,109.651935 49.9748264,108.565539 C51.4054388,106.821208 53.5926194,108.088766 53.2763727,108.732898 C52.1827824,110.968954 52.6692714,113.074459 52.9774388,113.679482 M31.9285665,88.520973 C32.2904035,88.227088 32.4502581,88.2253627 33.6742714,87.5565012 C34.5427956,87.0751279 35.537126,86.4821819 36.5383815,85.8345998 C38.3550687,84.6573345 41.7933859,83.4403862 43.2528529,83.4553392 C44.307778,83.4685669 46.1510115,83.9211843 47.1320687,84.9874519 C48.1564079,86.100304 48.4368749,87.3948932 47.1003286,87.1700223 C45.7759013,86.9428509 44.3695269,86.5862782 41.8228176,87.1700223 C38.9714035,87.8193298 37.0358352,88.9068768 35.661778,89.5216772 C34.2542493,90.1692594 32.8311392,90.3256913 32.3602317,90.304412 C31.9060599,90.2733556 30.6122185,89.584365 31.9285665,88.520973 M30.0582097,85.9841303 C28.7031965,86.84048 27.3747295,87.8325575 26.3636634,88.4847406 C25.1304167,89.2956561 23.3974079,88.5192477 23.9040952,86.796196 C24.1522449,85.9588251 25.3462493,83.8130622 27.3516458,83.4340599 C27.6130687,83.3805739 28.6079762,83.1919354 29.4401436,83.091865 C30.4119674,82.988919 31.4455401,82.9009261 31.9724256,82.8779214 C33.3920731,82.8163838 33.547311,83.9533908 32.5847207,84.5382852 C31.9458793,84.9310904 30.9590511,85.4164894 30.0582097,85.9841303 M7.38539912,57.7383908 C8.57190132,54.5401631 10.728496,51.8146819 12.200659,49.8897641 C13.547593,48.1293298 12.9110599,45.8058556 12.2231656,43.7233556 C11.7770731,41.8064894 10.540941,39.8229096 10.3522317,39.2978275 C10.2154608,38.9303275 10.2114211,38.6335669 10.3279938,38.3747641 C10.416289,38.315527 10.4901568,38.2677923 10.5796062,38.2102805 L13.1857559,37.987135 C20.6417912,37.0376162 27.2160291,34.4277336 29.2023815,33.3171819 C30.1799762,32.7708204 31.2181656,32.3400575 32.2800159,31.9817594 C33.5259586,31.5613486 34.8128749,31.1386373 36.1009454,30.9695528 C37.0768088,30.8096702 38.2309938,30.6595646 39.2189762,30.5514425 C40.6946018,30.3846585 43.0243242,31.4135434 42.5072493,31.7189308 C41.2589982,32.464858 35.4655665,33.8002805 30.3692626,39.8643181 C27.2460379,43.5726749 26.5206326,45.866243 25.4668617,47.5749167 C24.4015489,49.2887664 23.5462978,49.6959495 22.0475885,50.9865129 C21.314104,51.609365 19.8211656,52.9143063 19.0894123,54.9916303 C18.3490026,57.0890833 15.5022053,64.4028509 15.1305577,76.0184965 C15.0907383,77.3659965 14.8558617,78.7899871 13.572985,79.279412 C13.572985,79.279412 13.566637,79.2817124 13.5625974,79.2834378 C12.5099806,79.7078744 11.6570379,80.4020411 11.4792934,79.6463369 C10.8040952,77.0956913 9.2361348,71.5975692 8.57998062,68.1152336 C8.3733815,67.0161843 8.12754009,65.9297876 7.86611718,64.8428157 C7.15225374,61.8752101 6.82792775,59.2400223 7.38539912,57.7383908 M13.6508925,112.716736 C11.5237295,111.304823 11.6385709,109.456971 11.0966811,107.637299 C9.94826696,103.779412 8.71502026,99.1324636 7.64797621,95.1825575 C7.0016326,92.7940951 6.83716123,87.1890012 10.0908088,87.1890012 C11.7297515,87.1890012 12.9526106,87.7008556 13.4766106,89.2392946 C14.6429145,92.6635434 12.4459233,92.0677218 13.0103198,96.1142477 C13.4096678,98.9754566 13.9579057,101.794682 14.863941,106.656149 C15.2811789,108.896231 16.0140863,114.286231 14.0381216,112.974388 M21.8277163,82.7991303 C21.1640599,82.8698697 20.6037031,82.4678627 19.8800291,82.3114308 C19.0420907,82.1296937 18.5290555,82.3850458 18.1816458,81.9243768 C17.8734784,81.4516303 17.9311877,81.0053392 18.4095974,80.8247523 C18.888007,80.6458908 19.2365709,80.7793181 19.7190203,80.6872993 C20.702963,80.5003862 21.9027383,79.3783322 22.7903066,80.6228862 C23.3639366,81.4315012 22.8722537,82.6869824 21.8277163,82.7991303 M23.3570115,106.382968 C23.060963,105.114835 23.6265137,103.218097 26.622778,105.132663 C27.1023419,105.438626 28.5098705,106.075856 30.0743683,106.523297 C31.0219542,106.795903 31.6359806,106.397346 31.9025974,105.712381 C32.181333,105.032018 32.9575225,103.67359 31.6238617,103.023133 C30.2982802,102.363473 27.0140467,101.794107 25.138496,97.1960434 C24.8037824,96.3742007 25.3704872,95.429858 25.8973727,95.1883087 C26.4311833,94.9502101 27.0890687,95.0704096 27.7030952,95.6518533 C28.3130819,96.2206444 29.6213507,97.4807265 30.7940026,97.527311 C31.8743198,97.5779214 32.0514872,97.1414073 32.2702053,96.8872054 C33.1762405,95.8721232 35.7777736,92.0820998 41.1718573,92.7394589 C43.3959718,93.0109143 45.4481128,93.5037899 46.1960247,93.5595763 C46.7298352,93.5946585 48.2106546,93.6613721 49.6279938,93.3956678 C51.2432758,93.0948815 53.6543683,92.5951045 52.473637,93.9541068 C51.5150863,95.0571819 50.7135048,95.5167007 51.5537515,96.71352 C51.5970335,96.7750575 51.6397383,96.8337195 51.681289,96.8912312 C52.4384344,97.9546232 52.4586326,99.369412 51.6882141,100.423602 L51.5953022,100.55818 C50.4036062,102.101219 47.9388441,103.878332 42.8425401,104.199823 C40.5203198,104.347053 40.3760467,104.26136 40.3264167,105.585281 C40.3085269,106.09541 40.3142978,106.363989 40.3893198,106.721137 C40.5283991,107.385973 40.9560247,107.662604 42.5689982,107.762675 C43.7364564,107.833414 45.8757383,107.605093 45.879778,107.603942 C46.403778,107.447511 47.0229982,107.781654 46.6853991,108.217018 C46.6328837,108.282581 46.4199366,108.601771 46.3824256,108.650081 C45.2253551,110.139635 44.8652493,111.500363 44.7579101,112.314154 C44.6667295,113.001994 44.2673815,113.617945 43.6545093,113.934835 C43.64643,113.93886 43.6400819,113.942886 43.6320026,113.946337 C42.8881304,114.327065 39.8809013,114.974072 37.5153991,116.921419 C35.1602846,118.868191 30.2365313,120.473919 28.1214872,118.079705 C26.0018264,115.694119 24.2768969,110.355879 23.3570115,106.382968 M45.5219806,162.558133 C41.3034344,162.687534 30.2763507,156.055856 25.4657075,137.230539 C24.2191877,132.38805 27.2823947,128.459424 29.1827604,127.784811 C30.3063595,127.373602 30.8973022,127.244201 31.2752978,127.193015 C31.6654123,127.145281 33.5865533,127.157358 33.5190335,129.318649 C33.453822,131.069881 34.9121348,145.668661 38.7365269,150.951689 C39.685267,152.262381 40.5618705,152.310691 40.9975753,151.153555 C41.3975004,150.078086 42.062311,148.691478 42.2752581,148.164095 C42.4322273,147.784518 43.8224432,145.664635 44.2362185,147.274388 C45.112822,150.694036 47.1678485,157.730022 48.032333,159.546818 C49.4652537,162.560433 47.1037912,162.509823 45.5219806,162.558133 M48.1667956,132.053332 C42.661333,131.984893 40.1128925,129.939776 39.7204696,129.329001 C39.3407427,128.737205 39.9761216,128.277687 40.5514828,128.093649 C41.8516722,127.68359 44.1623507,126.520128 45.0995489,125.810433 C46.041941,125.110515 48.637126,123.499612 49.9465489,122.659365 C50.5634608,122.258508 54.1033463,120.72237 56.1733771,122.159588 C59.2804432,124.319729 62.1826414,125.763849 67.4959322,125.440633 C70.9157824,125.231865 70.8378749,122.482804 73.6194608,121.60805 C76.1326987,120.818414 76.615148,120.203614 77.4023022,119.744095 C78.4168308,119.542804 79.166474,119.287452 80.2669894,120.309435 C81.6635533,121.604025 82.1673551,122.624283 83.782637,124.443954 C85.9946326,126.931337 88.4328485,128.090773 89.1888396,128.238004 C89.9384828,128.39156 90.4786414,129.000609 90.4879864,129.251935 C90.4948,129.498661 90.1849013,130.272194 87.955593,130.907123 C80.5145621,133.032182 72.4560423,131.669729 68.3073242,130.018567 C66.2026678,129.179471 64.1557207,128.951149 61.8450423,130.08298 C59.516474,131.219412 53.3075357,132.11602 48.1667956,132.053332 M75.9895797,136.632417 C74.7211304,137.094811 71.0589013,137.944259 69.285496,138.051231 C67.4959322,138.151302 61.8219586,138.534905 60.8714872,138.489471 C59.7011436,138.421032 58.1222185,137.853391 56.8393419,136.684752 C56.5808044,136.446654 56.3003374,135.631712 57.3477604,135.613309 C59.2925621,135.578802 62.5779498,134.543015 73.8901172,135.498285 C75.099126,135.597205 75.6716018,135.650691 75.9584167,135.677147 C76.2550423,135.708203 77.2562978,136.186126 75.9895797,136.632417 M124.341853,93.028743 C122.849492,100.92683 121.185157,104.890539 120.114073,109.764083 C119.00317,114.830867 116.819452,122.239529 114.700368,122.429893 C112.558201,123.071149 111.696602,120.603896 110.322544,122.431043 C109.50365,123.51859 108.870003,124.954658 108.139404,125.881748 C107.674267,126.488496 107.214324,127.841748 107.206245,128.579048 C107.206245,130.004189 107.127183,134.608579 105.847192,140.646736 C103.917972,149.757745 100.409826,156.3969 96.7666414,160.586055 C89.7867075,168.609518 83.2482493,169.901231 82.4703286,170.31014 C81.4708044,170.837522 79.9559366,170.526384 79.4613683,170.290011 C78.9587207,170.061689 78.5738,169.460691 77.7093154,168.618719 C76.820593,167.79055 76.5106943,169.051783 76.4772229,169.373849 C76.4425974,169.67406 76.9290863,173.472135 75.9584167,175.187135 C73.8658793,178.882264 71.8524035,179.20433 70.7316899,183.804694 C70.3536943,185.358661 70.6162714,187.705715 68.7545709,186.643473 C64.2024652,184.050844 57.6801656,177.034987 56.3303463,170.232499 C55.9200335,168.160926 56.3043771,165.85068 57.5710952,161.911126 C58.3034256,159.600304 58.8245401,157.026079 58.8245401,155.543426 C58.8245401,152.913989 57.7926987,150.684835 58.8245401,150.456513 C60.7364476,150.032651 61.606126,154.963708 62.4948485,154.453004 C64.0379938,153.567323 62.8918881,148.36021 62.8918881,148.36021 C62.8918881,148.36021 62.2576634,146.879858 59.5499454,146.246654 C57.9923727,145.883755 57.5029982,144.721442 59.1638705,143.908802 C60.4034652,143.302628 61.8450423,142.50494 63.5243815,142.755116 C74.7482537,144.340715 77.9770863,142.092006 82.5159189,140.872757 C83.4075269,140.637534 83.9332581,140.533438 84.6315401,140.86183 C85.3246282,141.182745 87.1874828,142.198978 87.5672097,143.153097 C87.9515533,144.09744 87.5522053,147.809823 88.1489189,150.603168 C88.7548661,153.40859 90.7331392,150.85967 91.2236678,149.750844 C91.7211216,148.650069 92.2306943,145.936665 92.3334167,145.247675 C92.4424872,144.560985 93.0184256,141.675621 94.0589233,140.815245 C96.115104,139.114623 96.838778,136.878567 97.1700291,136.004388 C97.5105137,135.128485 98.0483639,132.430034 97.9514123,128.486454 C97.8521524,124.552076 97.1394432,124.124764 96.1860863,123.279342 C95.2436943,122.436219 94.1114388,122.598978 91.7061172,120.40433 C89.5616414,118.44318 87.7963154,115.276008 86.2450907,113.281501 C84.6892493,111.29332 82.1102229,109.155034 79.166474,108.437288 C76.2331128,107.732194 77.4519322,110.427769 77.6089013,111.185198 C77.731822,111.719482 78.4226018,114.112546 77.4438529,114.900457 C76.4853022,115.686067 70.5539454,119.660128 65.2631612,118.282722 C58.9566943,116.641337 56.7793242,113.143473 56.6489013,109.764083 C56.559452,107.368719 57.7107515,105.060198 59.1465577,102.315163 C59.9868044,100.710586 60.3261348,98.0311138 60.6637339,95.4620646 C60.9320819,93.40602 61.4855137,90.4338134 61.9344916,89.3755974 C62.2576634,88.6129918 63.0176943,87.7848228 64.7281965,87.8820176 C66.4196546,87.976912 67.5294035,88.8160082 67.8393022,90.2710552 C68.9346238,95.3257617 70.7224564,96.6013721 71.3284035,97.0114308 C71.9412758,97.419189 73.0856502,96.6013721 73.5311656,96.3063369 C73.982452,96.0153275 75.130289,94.8581913 74.7696062,94.2382148 C74.2213683,93.2766185 73.9195489,92.7009261 73.7989366,92.137311 C73.5900291,91.1751397 74.7961524,91.2930387 75.0414167,91.4851279 C77.0173815,93.0362195 78.8808132,93.1725223 82.2960467,93.7401631 C88.2718396,94.7328157 89.128822,92.5375927 93.233104,93.2472876 C93.7651833,93.3393063 94.7774035,93.7827218 95.1086546,94.3975223 C95.3804652,94.9226045 95.8790731,96.1297758 96.3805665,96.3425692 C96.8780203,96.5346585 98.0962626,96.6094237 98.7252934,96.7215716 C99.5938176,96.8676514 101.150236,96.7710317 100.887082,98.3715833 C100.219963,102.658508 95.254659,103.84095 92.93417,104.238931 C91.9756194,104.402839 91.5358749,104.48048 91.380637,104.616783 C90.8779894,105.057898 90.8589454,106.400222 91.4383463,107.267499 C91.8469278,107.877698 93.7236326,107.916231 96.2934256,107.425081 C98.9728661,106.912076 101.546699,105.623813 103.578641,102.467569 C105.731774,99.1238369 106.91539,91.7629096 107.164694,90.3883791 C107.408804,89.0149988 107.961082,86.7145293 108.721113,86.2446585 C109.470179,85.7742124 112.967359,84.7159965 113.459619,84.801689 C114.046522,84.9034847 114.472994,85.1852923 114.750575,86.5327923 C115.025271,87.8940951 114.511659,96.0044002 114.502426,97.22825 C114.487421,98.5331913 115.159157,98.5211138 115.533113,98.3491538 C116.347967,97.9747523 118.525337,96.5294824 119.01702,94.8593415 C119.381743,93.6182383 118.333166,91.81352 118.860051,90.09852 C119.680677,87.4253744 120.489183,86.7133791 121.046655,86.766865 C124.457848,87.0912312 125.156707,88.5813603 124.341853,92.8999167" id="Fill-1" fill="#000000" mask="url(#mask-2)"></path>
                </g>
                <path d="M378.394374,71.1146481 C373.238797,69.699666 366.693565,68.3888367 358.511451,68.3899868 C315.785186,68.3963173 304.949677,92.5419305 303.196655,108.933051 C301.228026,127.338175 313.952246,145.394589 345.316922,145.389987 C358.5195,145.387684 367.143751,143.087116 370.214559,142.108309 C370.983267,141.864327 371.554768,141.21927 371.705405,140.425752 L373.467627,131.136588 C373.733254,129.738869 372.413743,128.564992 371.059161,128.994262 C367.649132,130.074344 361.56501,131.558953 353.879078,131.559529 C338.88783,131.562406 328.06382,122.552325 329.432776,107.049093 C330.758611,92.0338259 340.881182,80.6057885 354.797848,80.6034868 C363.169121,80.6023359 366.867775,84.9842344 366.594674,90.8472895 C366.594674,90.8518929 366.592949,90.9468388 366.580875,91.1798879 C366.52338,92.2524892 367.376606,93.1536124 368.449462,93.1536124 L374.128244,93.1536124 C375.005618,93.1536124 375.765127,92.5436567 375.955436,91.6868417 L379.946739,73.7063842 C380.201442,72.5658822 379.519551,71.4236539 378.394374,71.1146481" id="Fill-4" fill="#EE312B"></path>
                <path d="M201.052614,70.9837195 L200.007097,75.6836165 C199.773536,76.7324586 200.390762,77.7841838 201.424109,78.096703 C201.431063,78.0990095 201.43512,78.1001627 201.43512,78.1001627 C203.256661,78.7972766 203.660031,80.5363134 202.07321,81.8382846 L175.620009,103.71117 C175.614793,103.715206 175.607259,103.710594 175.608418,103.704251 L180.150969,83.0941275 C180.925833,79.9314561 183.450954,78.6294849 185.047048,78.1134246 C185.13514,78.0857476 185.222074,78.0592238 185.307268,78.0332766 C186.009109,77.8176268 186.540561,77.2433295 186.699359,76.5294941 L187.785445,71.6473904 C188.043346,70.4884169 187.156628,69.3899868 185.963904,69.3899868 L151.85884,69.3899868 C150.8962,69.3899868 150.0628,70.0553875 149.85358,70.9906388 L148.750108,75.9373221 C148.525241,76.9446488 149.09842,77.9588948 150.080186,78.2921717 C150.274337,78.3579045 150.40068,78.4005732 150.418067,78.4074924 C152.558363,79.241838 155.037698,81.1186832 153.990443,86.0526812 L145.860448,123.087938 C143.732322,133.202144 140.28571,135.268115 136.998474,135.645791 C136.96544,135.649827 136.930667,135.653863 136.894155,135.6579 C136.01439,135.753616 135.294583,136.398835 135.10333,137.258551 L134.047381,142.004577 C133.77499,143.228706 134.711551,144.389987 135.971503,144.389987 L171.826823,144.389987 C172.704269,144.389987 173.464065,143.782823 173.654159,142.930602 L174.892088,137.379062 C175.094353,136.47437 174.60289,135.558724 173.735297,135.220834 C173.661114,135.191427 173.584033,135.160867 173.504054,135.128577 C171.688888,134.396291 169.211871,132.836577 169.844745,129.894169 L174.010585,110.956773 C174.012324,110.95043 174.020438,110.949277 174.023915,110.955043 C188.295453,136.916049 193.026939,144.392293 210.160898,144.389987 L225.634432,144.389987 C226.508401,144.389987 227.2653,143.786859 227.455973,142.938098 L228.539161,138.128646 C228.81445,136.894714 227.901651,135.71037 226.631267,135.685576 C222.761,135.626186 220.86006,134.73418 217.009497,129.807102 L197.141778,103.055572 C197.140039,103.052689 197.140039,103.048653 197.142937,103.046346 L222.960946,81.684908 C226.423207,78.9881324 230.65048,78.2310517 232.991302,77.9208389 C232.991302,77.9208389 233.081712,77.9110366 233.224862,77.8960449 C234.048989,77.8084012 234.720114,77.2346805 234.899196,76.4297417 L235.954565,71.6796802 C236.215945,70.5045618 235.316476,69.3899868 234.106365,69.3899868 L203.048021,69.3899868 C202.089438,69.3899868 201.259515,70.0525045 201.052614,70.9837195" id="Fill-6" fill="#EE312B"></path>
                <path d="M296.09807,91.5557873 L302.073225,91.5557873 C302.946071,91.5557873 303.701353,90.9463172 303.89003,90.0900606 L307.954902,71.6721844 C308.213544,70.5011022 307.326934,69.3899868 306.134082,69.3899868 L243.283986,69.3899868 C242.329131,69.3899868 241.502164,70.0571173 241.295709,70.994675 L240.207805,75.9315561 C239.995615,76.8950609 240.529531,77.868368 241.454565,78.1981854 C241.522809,78.2229793 241.592775,78.2483499 241.664461,78.2742971 C243.732453,79.0677038 246.613648,81.081204 245.35886,86.0301938 L233.044386,142.121051 C232.788611,143.285791 233.670633,144.389987 234.857177,144.389987 L263.124322,144.389987 C263.995448,144.389987 264.749009,143.78167 264.937686,142.926567 L266.172402,137.327168 C266.354771,136.500895 265.933832,135.660783 265.165934,135.315974 C265.074176,135.274459 264.982418,135.23179 264.891807,135.187968 C263.099089,134.31153 260.429509,132.271506 261.324148,128.343682 C261.419347,127.818396 264.09122,115.647444 264.09122,115.647444 L288.129476,115.647444 C289.00347,115.647444 289.759898,115.036821 289.949149,114.179411 L292.210406,103.935469 C292.469048,102.763234 291.581865,101.651542 290.387292,101.651542 L267.17371,101.650965 L271.507546,81.786967 L287.722875,81.7685156 C292.965114,81.767939 294.56342,84.519492 294.257179,89.2118932 C294.257179,89.2130464 294.254311,89.2735898 294.233092,89.4627158 C294.110366,90.5790206 294.980345,91.5557873 296.09807,91.5557873" id="Fill-8" fill="#EE312B"></path>
                <path d="M147.831315,175.711625 C147.378312,176.964337 146.664847,178.80374 145.553306,179.621318 C144.559298,180.35187 143.199698,180.927312 142.337397,179.756891 C142.277745,179.675784 142.202146,179.497586 142.131863,179.289196 C142.83765,176.592549 143.543437,173.895311 144.249815,171.198664 C144.260446,171.157223 144.271077,171.115189 144.282299,171.073156 C144.631353,170.662887 145.042423,170.307676 145.500151,170.048963 C146.315793,169.588372 147.732092,169.371101 148.23825,170.392334 C148.375864,170.669991 148.425476,170.982577 148.454416,171.291611 C148.59203,172.781723 148.335702,174.316236 147.831315,175.711625 M148.322709,168.454656 C147.355278,168.221401 146.249053,168.652982 145.472982,169.207704 C145.13574,169.448656 144.83925,169.661783 144.584104,169.906879 C144.654978,169.63159 144.719946,169.353933 144.802632,169.081604 C144.864056,168.879134 144.881775,168.663639 144.61895,168.615685 C144.526814,168.598517 144.432315,168.612133 144.339589,168.62575 C143.915526,168.688504 143.492053,168.750666 143.067991,168.81342 C142.896712,168.838284 142.720117,168.865517 142.571282,168.953728 C142.374016,169.070356 142.312592,169.292955 142.244671,169.497794 C142.150763,169.781371 142.076345,170.073236 141.993658,170.359773 C141.83242,170.921599 141.670591,171.484017 141.521165,172.049987 C140.88448,174.463649 140.245433,176.672472 139.494168,179.053572 C139.441603,179.219929 137.242146,187.085494 137.18899,187.251851 C137.100988,187.526548 136.865332,188.23401 137.103351,188.476738 C137.186628,188.562581 137.281717,188.64428 137.393344,188.691049 C137.440002,188.710586 137.570529,188.851486 137.617778,188.868063 C137.754211,188.916608 137.714049,188.9172 137.907771,188.992979 C138.08909,189.064021 138.260369,189.184201 138.439917,189.254651 C138.617102,189.323325 138.734044,189.314445 138.860436,189.359439 C138.992144,189.406208 139.280365,189.410352 139.355964,189.291948 C139.447509,189.147496 139.550277,188.636583 139.58276,188.522916 C139.6495,188.268348 141.863132,180.315164 141.929872,180.061188 C141.942865,180.091973 141.95645,180.125126 141.969443,180.153543 C142.366928,181.061108 143.175483,181.612278 144.008253,181.87099 C146.379579,182.608646 148.618608,179.936272 149.619703,178.001554 C150.822199,175.678472 151.63725,172.672199 150.339075,170.211768 C149.911468,169.400702 149.241118,168.676071 148.322709,168.454656" id="Fill-10" fill="#000000"></path>
                <path d="M135.571732,169.134858 C135.52562,168.914877 135.528994,168.67517 135.512686,168.474916 C135.546989,167.993111 135.584666,167.545379 135.609972,167.097049 C135.642589,166.529165 135.518309,166.348638 135.100483,166.397655 C134.618549,166.454443 134.234464,166.738983 134.052263,167.386969 C133.948791,167.755795 134.01796,168.128806 134.096126,168.483883 C134.308695,169.448688 134.634295,170.332197 135.194958,171.016049 C135.325423,171.175655 135.49694,171.304176 135.666207,171.368735 C135.918702,171.464977 136.057603,171.222281 135.977187,170.883941 C135.838286,170.302308 135.694887,169.722468 135.571732,169.134858" id="Fill-12" fill="#000000"></path>
                <path d="M138.706519,171.373138 C138.943529,171.458608 139.059839,171.20782 138.969315,170.871562 C138.813502,170.294075 138.654398,169.717713 138.512851,169.132916 C138.459633,168.913617 138.451404,168.672951 138.426715,168.472208 C138.435493,167.986377 138.44866,167.535408 138.450306,167.083315 C138.45305,166.510889 138.330155,166.33545 137.948306,166.404051 C137.507752,166.483336 137.167599,166.786418 137.030989,167.446564 C136.953631,167.822184 137.034829,168.193867 137.124257,168.546994 C137.365656,169.506286 137.708004,170.379545 138.256638,171.040816 C138.38447,171.194887 138.547963,171.315783 138.706519,171.373138" id="Fill-14" fill="#000000"></path>
                <path d="M159.915457,172.494904 C159.115053,174.950213 158.531485,176.68043 157.747102,179.132864 C157.614368,179.548024 157.164106,180.20814 156.773344,180.461147 C156.066197,180.918283 155.456884,181.00281 154.974582,180.819955 C154.19592,180.524398 153.731354,179.97181 153.703892,179.111014 C153.644391,177.211743 154.036869,175.499926 155.217735,173.221146 C155.436859,172.877863 155.670859,172.474778 155.951772,172.078594 C156.359126,171.50358 156.852298,170.981467 157.582329,170.742836 C158.941127,170.298351 160.299353,171.31785 159.915457,172.494904 M162.999212,170.653134 C163.00665,170.547332 162.959735,170.442104 162.929985,170.342627 C162.922547,170.316176 162.913965,170.288575 162.896802,170.2673 C162.872772,170.238549 162.835584,170.224749 162.800112,170.212098 C162.68626,170.172422 162.571262,170.134472 162.455693,170.098821 C162.377312,170.075245 162.298931,170.052245 162.220549,170.029244 C161.985978,169.963692 161.742253,169.84409 161.500244,169.825114 C161.482508,169.823964 161.4642,169.822814 161.44818,169.815914 C161.439026,169.811889 161.431017,169.806139 161.421863,169.801538 C161.40241,169.792913 161.381242,169.792338 161.360073,169.791763 C161.333183,169.791188 161.305721,169.792913 161.278831,169.798088 C161.267389,169.800388 161.255374,169.806714 161.244504,169.809014 C161.234778,169.810739 161.223335,169.806714 161.213609,169.809589 C161.209604,169.811314 161.206171,169.814189 161.202739,169.816489 C161.168411,169.84524 161.131223,169.86594 161.099184,169.897566 C161.07115,169.926317 161.046548,169.958517 161.024808,169.993018 C160.901801,170.187948 160.870334,170.421979 160.789664,170.634734 C160.760486,170.711786 160.65121,171.046444 160.58942,171.189622 C160.410917,170.835989 160.194082,170.515706 159.944063,170.263275 C159.663721,169.980368 159.349625,169.709536 158.94742,169.548532 C156.9713,168.760763 154.124976,171.059094 152.776477,173.123969 C152.088782,174.177969 151.686578,175.23542 151.410814,176.243419 C150.925079,178.019637 150.804361,179.657277 151.410814,180.959109 C151.620211,181.409345 151.922866,181.826805 152.345666,182.102236 C153.378353,182.774428 155.322434,182.227589 156.914087,180.892407 C156.99304,180.825705 157.071422,180.757854 157.250497,180.6049 C157.114903,181.041336 157.005627,181.288592 156.965578,181.62785 C156.950131,181.763553 157.015353,181.871656 157.134355,181.932607 C157.190424,181.961933 157.260795,181.988959 157.323729,181.995859 C157.399249,182.004484 157.469621,182.018284 157.545713,182.03036 C157.598921,182.038985 157.660711,182.03036 157.716207,182.03381 C157.789439,182.03841 157.863243,182.041285 157.936475,182.035535 C158.012568,182.029785 158.087516,182.015409 158.163609,182.011959 C158.257437,182.008509 158.351838,182.022309 158.445667,182.030935 C158.521759,182.037835 158.598424,182.04071 158.675089,182.04416 C158.756331,182.04761 158.837572,182.050485 158.919386,182.053935 C158.996051,182.057385 159.072716,182.06026 159.148809,182.04876 C159.588773,181.979758 159.703198,181.499047 159.819912,181.139663 C160.428653,179.259942 162.890508,171.151671 162.943144,170.918791 C162.962596,170.831388 162.992919,170.742836 162.999212,170.653134" id="Fill-16" fill="#000000"></path>
                <path d="M182.915457,172.494904 C182.115053,174.950213 181.531485,176.68043 180.747102,179.132864 C180.614368,179.548024 180.164106,180.20814 179.773344,180.461147 C179.066197,180.918283 178.456312,181.00281 177.974582,180.819955 C177.19592,180.524398 176.731354,179.97181 176.703892,179.111014 C176.644391,177.211743 177.036869,175.499926 178.217735,173.221146 C178.436859,172.877863 178.670859,172.474778 178.951772,172.078594 C179.359126,171.50358 179.852298,170.981467 180.582329,170.742836 C181.941127,170.298351 183.298781,171.31785 182.915457,172.494904 M185.896802,170.2673 C185.872772,170.238549 185.835584,170.224749 185.800112,170.212098 C185.68626,170.172422 185.571262,170.134472 185.455693,170.098821 C185.377312,170.075245 185.298931,170.052245 185.220549,170.029244 C184.985978,169.963692 184.742253,169.84409 184.500244,169.825114 C184.482508,169.823964 184.4642,169.822814 184.44818,169.815914 C184.439026,169.811889 184.430444,169.806139 184.421863,169.801538 C184.40241,169.792913 184.381242,169.792338 184.360073,169.791763 C184.333183,169.791188 184.305721,169.792913 184.278831,169.798088 C184.267389,169.800388 184.255374,169.806714 184.244504,169.809014 C184.234778,169.810739 184.223335,169.806714 184.213609,169.809589 C184.209604,169.811314 184.206171,169.814189 184.202739,169.816489 C184.168411,169.84524 184.131223,169.86594 184.099184,169.897566 C184.07115,169.926317 184.046548,169.958517 184.024808,169.993018 C183.901801,170.187948 183.870334,170.421979 183.789664,170.634734 C183.760486,170.711786 183.65121,171.046444 183.58942,171.189622 C183.410917,170.835989 183.194082,170.515706 182.944063,170.263275 C182.663721,169.980368 182.349625,169.709536 181.94742,169.548532 C179.9713,168.760763 177.124976,171.059094 175.776477,173.123969 C175.088782,174.177969 174.686578,175.23542 174.410814,176.243419 C173.925079,178.019637 173.804361,179.657277 174.410814,180.959109 C174.620211,181.409345 174.922866,181.826805 175.345666,182.102236 C176.378353,182.774428 178.322434,182.227589 179.914087,180.892407 C179.99304,180.825705 180.071422,180.757854 180.250497,180.6049 C180.114903,181.041336 180.005627,181.288592 179.965578,181.62785 C179.950131,181.763553 180.015353,181.871656 180.134355,181.932607 C180.190424,181.961933 180.260795,181.988959 180.323729,181.995859 C180.399249,182.004484 180.469621,182.018284 180.545141,182.03036 C180.598921,182.038985 180.660711,182.03036 180.716207,182.03381 C180.789439,182.03841 180.863243,182.041285 180.936475,182.035535 C181.012568,182.029785 181.087516,182.015409 181.163609,182.011959 C181.257437,182.008509 181.351838,182.022309 181.445667,182.030935 C181.521759,182.037835 181.598424,182.04071 181.675089,182.04416 C181.756331,182.04761 181.837572,182.050485 181.919386,182.053935 C181.995479,182.057385 182.072716,182.06026 182.148809,182.04876 C182.588773,181.979758 182.703198,181.499047 182.819912,181.139663 C183.428653,179.259942 185.890508,171.151671 185.943144,170.918791 C185.962596,170.831388 185.992919,170.742836 185.999212,170.653134 C186.00665,170.547332 185.959735,170.442104 185.929985,170.342627 C185.922547,170.316176 185.913965,170.288575 185.896802,170.2673" id="Fill-18" fill="#000000"></path>
                <path d="M256.761079,169.746277 C255.321731,169.272718 253.999365,170.248864 253.018896,171.198259 C252.609463,171.594978 252.207869,172.034956 251.830998,172.501116 L251.8919,172.113503 C252.082446,171.534645 252.392988,171.516431 252.576299,170.935866 C252.613081,170.820322 252.711369,170.632492 252.667954,170.511826 C252.552179,170.186254 251.640451,169.751399 251.317849,169.583491 C251.236445,169.541371 251.116449,169.50722 251.000072,169.474208 C250.922888,169.45201 250.847514,169.431519 250.798671,169.40989 C250.723297,169.378016 250.649129,169.390538 250.561092,169.405337 L250.49235,169.411029 L250.443508,169.458271 C250.358486,169.54194 250.308437,169.647808 250.263816,169.754245 C250.002116,170.382622 249.844735,171.045718 249.612582,171.683771 C249.303246,172.534128 247.960377,177.776291 247.668528,178.906116 L247.353765,180.157177 C247.337484,180.206696 247.321204,180.257922 247.304923,180.306872 C247.174073,180.698469 246.99016,181.222685 247.000411,181.361565 C247.008852,181.470279 247.023927,181.561348 247.076991,181.656971 C247.151159,181.78959 247.183118,181.916518 247.242211,182.051983 C247.26814,182.111747 247.298893,182.171511 247.353162,182.210215 C247.408638,182.249489 247.480997,182.262011 247.550944,182.273394 C247.758977,182.306976 248.539855,182.515297 248.694221,182.277948 C248.785274,182.138498 248.89321,182.007017 248.960142,181.860169 C249.029486,181.707059 249.055415,181.549395 249.131392,181.396286 C249.24174,181.175443 249.33038,180.938664 249.370781,180.700176 C249.370781,180.700176 249.374399,180.673994 249.373193,180.665456 C249.469672,180.362083 249.720518,179.443993 249.856794,178.949374 C249.993674,178.450202 250.262007,177.286794 250.391047,176.862754 C250.482702,176.564503 250.544811,176.495063 250.857765,175.75968 C251.075446,175.359546 251.250917,174.924122 251.484276,174.539355 C251.772507,174.065796 252.090285,173.605897 252.450273,173.173888 C253.170851,172.309871 254.050619,171.493664 255.178219,171.155001 C256.089343,170.880656 255.942815,172.06 255.726341,172.662763 C255.398312,173.575161 254.803759,173.933176 254.590299,174.895093 C254.430506,175.616816 255.931359,175.456876 256.245519,175.341901 C257.238047,174.977625 257.55281,173.69412 257.830791,172.721958 C258.162437,171.565381 258.103344,170.187962 256.761079,169.746277" id="Fill-20" fill="#000000"></path>
                <path d="M172.761079,169.746277 C171.321731,169.272718 169.999365,170.248864 169.018896,171.198259 C168.609463,171.594978 168.207869,172.034956 167.830998,172.501116 L167.8919,172.113503 C168.082446,171.534645 168.392988,171.516431 168.576299,170.935866 C168.613081,170.820322 168.711369,170.632492 168.667954,170.511826 C168.552179,170.186254 167.640451,169.751399 167.317849,169.583491 C167.236445,169.541371 167.116449,169.50722 167.000072,169.474208 C166.922888,169.45201 166.847514,169.431519 166.798671,169.40989 C166.723297,169.378016 166.649129,169.390538 166.561092,169.405337 L166.49235,169.411029 L166.443508,169.458271 C166.358486,169.54194 166.308437,169.647808 166.263816,169.754245 C166.002116,170.382622 165.844735,171.045718 165.612582,171.683771 C165.303246,172.534128 163.960377,177.776291 163.668528,178.906116 L163.353765,180.157177 C163.337484,180.206696 163.321204,180.257922 163.304923,180.306872 C163.174073,180.698469 162.99016,181.222685 163.000411,181.361565 C163.008852,181.470279 163.023927,181.561348 163.076991,181.656971 C163.151159,181.78959 163.183118,181.916518 163.242211,182.051983 C163.26814,182.111747 163.298893,182.171511 163.353162,182.210215 C163.408638,182.249489 163.480997,182.262011 163.550944,182.273394 C163.758977,182.306976 164.539855,182.515297 164.694221,182.277948 C164.785274,182.138498 164.89321,182.007017 164.960142,181.860169 C165.029486,181.707059 165.055415,181.549395 165.131392,181.396286 C165.24174,181.175443 165.33038,180.938664 165.370781,180.700176 C165.370781,180.700176 165.374399,180.673994 165.373193,180.665456 C165.469672,180.362083 165.720518,179.443993 165.856794,178.949374 C165.993674,178.450202 166.261404,177.286794 166.391047,176.862754 C166.482702,176.564503 166.544811,176.495063 166.857765,175.75968 C167.075446,175.359546 167.250917,174.924122 167.484276,174.539355 C167.772507,174.065796 168.090285,173.605897 168.450273,173.173888 C169.170851,172.309871 170.050619,171.493664 171.178219,171.155001 C172.089343,170.880656 171.942815,172.06 171.726341,172.662763 C171.398312,173.575161 170.803759,173.933176 170.590299,174.895093 C170.430506,175.616816 171.931359,175.456876 172.245519,175.341901 C173.238047,174.977625 173.55281,173.69412 173.830791,172.721958 C174.162437,171.565381 174.103344,170.187962 172.761079,169.746277" id="Fill-22" fill="#000000"></path>
                <path d="M270.336861,173.353135 C271.147016,172.128069 271.955986,171.507084 272.74125,171.507084 C272.956383,171.507084 273.179813,171.606262 273.406799,171.802362 C273.639711,172.004098 273.789652,172.226683 273.851881,172.46392 C274.062865,173.272553 273.620746,174.126267 272.536193,175.000267 C271.430896,175.892863 270.389607,176.345359 269.441956,176.345359 C269.296756,176.345359 269.148,176.314366 268.997467,176.252944 C269.316314,175.218908 269.766729,174.24404 270.336861,173.353135 M276.869073,178.692368 C276.790843,178.651795 276.691277,178.660811 276.611269,178.699693 C276.531854,178.738575 276.437029,178.785346 276.374801,178.846205 C275.610872,179.593416 275.030666,180.113533 274.080052,180.553633 C273.178035,180.971755 271.989175,181.251255 270.985222,181.232096 C270.687118,181.227024 270.386643,181.210119 270.098614,181.134609 C269.377949,180.945834 268.580832,180.356405 268.394739,179.641878 C268.241242,179.054139 268.222278,178.615731 268.404814,178.212823 C269.872814,178.25734 271.498459,177.448707 273.221299,176.335216 C275.129046,175.062253 275.914903,173.721669 275.556348,172.352345 C275.412926,171.800108 274.049234,170.860178 273.470213,170.481501 C272.345951,169.747251 271.597432,169.389987 271.180205,169.389987 C269.88763,169.389987 268.656692,170.679292 267.417456,173.331721 C266.249931,175.805519 265.768105,177.772724 266.105324,179.061465 C266.312752,179.856574 266.663602,180.625198 267.31789,181.180253 C268.883085,182.509004 271.165981,182.685945 273.079655,181.990013 C274.251921,181.563438 275.186533,180.905261 276.062473,180.086485 C276.063659,180.085922 276.064251,180.085358 276.064251,180.085358 C276.354058,179.875733 276.616603,179.559042 276.835884,179.284614 C276.907595,179.194453 276.97575,179.096966 276.995308,178.985955 C277.014865,178.874944 276.97338,178.746464 276.869073,178.692368" id="Fill-24" fill="#000000"></path>
                <path d="M263.957578,169.989747 C263.918456,169.960586 263.878262,169.932525 263.836996,169.905564 C262.420028,168.970746 260.495545,169.371304 259.459614,170.590584 C259.005692,171.124294 258.783285,171.821418 258.838485,172.502586 C258.900651,173.266837 259.193799,173.924896 259.566798,174.584055 C260.02608,175.396174 260.579148,176.158775 261.058259,176.95989 C261.543265,177.772009 262.076504,178.833377 261.510574,179.747837 C260.582364,181.247177 258.427971,180.252936 257.792372,178.977534 C257.680901,178.753596 257.579077,178.448225 257.547993,178.201728 L257.503512,177.820979 C257.497617,177.730743 257.466534,177.67297 257.422588,177.637757 C257.379179,177.603093 257.323444,177.591538 257.269316,177.59484 C257.20447,177.598141 257.141231,177.622901 257.104253,177.654263 C257.017434,177.726892 257.004572,177.867197 257.001892,177.994847 C257.001357,178.041615 257.001892,178.086733 257.000821,178.125799 C256.997069,178.280409 257.00618,178.43557 257.028152,178.589081 C257.053341,178.762949 257.096214,178.934617 257.162132,179.097481 C257.621414,180.224875 258.583388,181.134382 259.851371,181.33191 C261.504143,181.589962 263.27053,181.006732 263.747498,179.206974 C263.933997,178.502697 263.928638,177.744499 263.72231,177.045724 C263.518661,176.356302 263.080815,175.785728 262.659583,175.222856 C261.898043,174.204956 260.734564,173.292147 261.062546,171.92761 C261.332113,170.804068 262.630644,170.005703 263.61727,170.968582 C263.90613,171.250293 263.939893,171.659104 263.849858,172.023898 C263.765183,172.367783 263.576004,172.761738 263.283928,172.991728 C263.164955,173.085265 263.045981,173.177151 262.923255,173.265736 C262.856801,173.313605 262.754441,173.350469 262.77427,173.426399 C262.795707,173.508382 262.950587,173.651988 263.026688,173.697106 C263.073848,173.724617 263.190143,173.715263 263.243199,173.718014 C263.409869,173.727918 263.578148,173.725167 263.743211,173.702608 C263.928638,173.677298 264.115674,173.626678 264.270554,173.525438 C264.452767,173.405491 264.589962,173.203562 264.698217,173.024741 C265.325778,171.990885 264.924375,170.705029 263.957578,169.989747" id="Fill-26" fill="#000000"></path>
                <path d="M295.691607,175.46516 C295.657988,175.84894 295.522943,176.262833 295.428355,176.635396 C295.320091,177.062869 295.188464,177.483256 295.034615,177.895378 C294.581046,179.111668 293.957102,180.245298 293.069337,181.176409 C292.535424,181.736139 291.745096,182.443477 290.91716,182.268709 C290.659606,182.214389 290.431111,182.069143 290.245923,181.878433 C289.971274,181.597387 289.80261,181.268517 289.744489,180.901858 C289.516565,179.45589 289.839078,176.827286 290.743938,174.629108 C291.685835,172.266789 292.790129,171.069393 294.02434,171.069393 C294.125197,171.069393 294.382181,171.178623 294.613525,171.413615 C294.689879,171.490961 294.787887,171.592515 294.90071,171.724182 C294.851136,171.846401 294.823215,171.931423 294.823215,171.931423 C294.795864,172.004637 294.509819,172.797587 295.698445,175.243157 C295.699585,175.319913 295.697875,175.396669 295.691607,175.46516 M304.891777,170.5197 C304.849611,170.488407 304.806875,170.458295 304.76357,170.429364 C303.256989,169.42563 301.210228,169.856055 300.108783,171.164452 C299.626723,171.737171 299.389681,172.485249 299.448942,173.216204 C299.475723,173.549798 299.54467,173.863317 299.642108,174.166799 C299.609628,174.192778 299.578289,174.218757 299.54581,174.243556 C299.443244,174.322083 299.33384,174.390573 299.225006,174.460835 C298.995372,174.608443 298.753772,174.737747 298.500776,174.836349 C298.199916,174.953845 297.875123,175.034144 297.550901,175.019383 C297.542924,175.019383 297.540644,173.772981 297.532667,173.674379 C297.467709,172.867258 297.261437,172.030616 296.76912,171.385864 C296.55943,171.111313 296.299026,170.777719 295.942894,170.725761 C295.71383,170.535052 295.427215,170.31482 295.088747,170.069201 C294.279046,169.482311 293.272189,169.175286 292.959933,169.175286 C291.208334,169.175286 289.727395,170.581105 288.559852,173.352003 C287.500573,175.799935 287.11823,178.44389 287.423079,180.376964 C287.469233,180.669819 287.56952,180.952045 287.718811,181.223053 C287.639607,181.3004 287.559833,181.378337 287.472652,181.446237 C286.701698,182.044344 285.513072,182.443477 284.841834,181.490519 C283.917601,180.178579 284.456072,177.839877 284.742687,176.384462 C285.105087,174.548809 285.384864,173.370306 285.841853,171.55709 C286.416792,169.27625 287.066377,167.015486 287.788897,164.78011 C288.150727,163.662422 288.529652,162.551229 288.92795,161.447121 C289.276674,160.480583 289.860161,159.438471 289.670414,158.373331 C289.478387,157.294612 288.310274,157.393214 287.492596,157.393804 C287.212249,157.393804 286.550128,157.325905 286.612237,157.762824 C286.752981,158.745894 286.313656,159.914949 286.054962,160.843109 C285.686294,162.166267 285.273181,163.475255 284.912491,164.801365 C284.064612,167.914123 283.339243,171.062898 282.738092,174.23647 C282.427545,175.874329 282.150047,177.522815 282.029247,179.187244 C281.943775,180.361023 281.993349,181.507051 282.908465,182.344284 C284.328435,183.642644 286.885747,183.203363 288.223663,181.899689 C288.44361,182.132319 288.704014,182.355502 289.011142,182.565696 C289.506308,182.896338 290.081247,183.100037 290.652198,183.236427 C291.366741,183.406471 292.09439,183.488541 292.790129,183.195687 C293.418631,182.931173 293.979895,182.513148 294.461385,182.021908 C295.214106,181.253756 295.807279,180.330911 296.272815,179.351384 C296.506437,178.860144 296.70815,178.353553 296.883652,177.836925 C296.924679,177.717068 297.229527,176.451181 297.247761,176.452952 C297.797059,176.512586 298.36915,176.366159 298.844372,176.08039 C299.291104,175.811743 299.631281,175.36951 299.958923,174.94676 C300.040975,175.115624 300.129296,175.282716 300.223315,175.449808 C300.711643,176.320696 301.299118,177.139035 301.808529,177.999294 C302.324778,178.870772 302.89174,180.009125 302.29002,180.990423 C301.303107,182.599351 299.012466,181.53244 298.33667,180.164409 C298.21758,179.923512 298.109316,179.595823 298.076837,179.331899 L298.029542,178.92273 C298.023274,178.82649 297.989655,178.763904 297.943501,178.726706 C297.897346,178.689509 297.838086,178.67652 297.780535,178.680062 C297.711018,178.684195 297.64435,178.710765 297.605033,178.744419 C297.512724,178.821766 297.498478,178.972917 297.496199,179.109306 C297.495059,179.159493 297.496199,179.207909 297.495059,179.249829 C297.491071,179.415741 297.500188,179.582833 297.52412,179.746973 C297.550901,179.93355 297.596486,180.118355 297.666573,180.293123 C298.154901,181.502918 299.177712,182.478902 300.525885,182.690868 C302.283182,182.96719 304.161279,182.341332 304.668411,180.410619 C304.866706,179.654866 304.861007,178.84066 304.64106,178.090811 C304.424532,177.35159 303.959566,176.739312 303.511695,176.1353 C302.701423,175.04241 301.464933,174.063474 301.813088,172.598612 C302.100273,171.39354 303.480355,170.536823 304.529947,171.570079 C304.836506,171.87238 304.872973,172.310481 304.777245,172.702528 C304.687215,173.071548 304.486072,173.493707 304.175525,173.741098 C304.049027,173.840881 303.921959,173.939483 303.791472,174.034543 C303.721385,174.08591 303.611981,174.125469 303.633634,174.207539 C303.656427,174.294923 303.821102,174.449616 303.902015,174.497441 C303.952159,174.527553 304.075808,174.516926 304.132219,174.520468 C304.30943,174.531096 304.488351,174.527553 304.663853,174.503346 C304.860438,174.476186 305.059871,174.422456 305.224547,174.313227 C305.418283,174.185103 305.563584,173.968414 305.679256,173.775933 C306.346505,172.666511 305.919147,171.286672 304.891777,170.5197" id="Fill-28" fill="#000000"></path>
                <path d="M356.545329,174.671434 C356.511233,175.045225 356.374272,175.448345 356.278341,175.81121 C356.16854,176.227557 356.035046,176.637002 355.879014,177.038397 C355.419008,178.223028 354.786211,179.327151 353.885848,180.234026 C353.344358,180.779187 352.542816,181.468113 351.703131,181.297894 C351.441922,181.244988 351.210185,181.103523 351.022369,180.917777 C350.743823,180.644047 350.572765,180.323736 350.51382,179.966622 C350.282661,178.55829 350.609751,175.998106 351.527451,173.857143 C352.482714,171.556313 353.602678,170.390084 354.854403,170.390084 C354.956691,170.390084 355.217322,170.496471 355.451948,170.725346 C355.529386,170.800679 355.628785,170.89959 355.743208,171.027829 C355.692931,171.146868 355.664614,171.229677 355.664614,171.229677 C355.636875,171.300985 355.346771,172.073296 356.552264,174.45521 C356.55342,174.529968 356.551686,174.604726 356.545329,174.671434 M342.174768,176.842875 L342.173035,176.845175 C341.100458,179.540499 340.066023,181.173105 339.10787,181.173105 C338.464671,181.173105 338.090194,180.873497 337.930116,180.230576 C337.62961,179.026967 337.902955,176.387424 338.735704,173.720853 C339.622776,170.919142 340.566482,169.498735 341.541971,169.498735 C341.810116,169.498735 342.408817,169.735086 343.740869,170.85301 C343.665742,172.242364 343.139278,174.529393 342.174768,176.842875 M318.8104,176.845175 L318.809244,176.84805 C317.736089,179.542799 316.702232,181.175406 315.744079,181.175406 C315.10088,181.175406 314.726403,180.875797 314.565747,180.233451 C314.265241,179.029843 314.539164,176.389725 315.371913,173.723154 C316.258407,170.922018 317.202691,169.501035 318.17818,169.501035 C318.446325,169.501035 319.045026,169.737961 320.377078,170.85531 C320.301951,172.244665 319.775487,174.531693 318.8104,176.845175 M328.803969,172.909438 C329.593954,171.65925 330.382784,171.025529 331.148497,171.025529 C331.358273,171.025529 331.576718,171.12674 331.797475,171.326863 C332.025166,171.532736 332.170796,171.760461 332.231476,172.001988 C332.437207,172.827779 332.006096,173.698426 330.948545,174.59035 C329.870767,175.501251 328.85598,175.963602 327.931345,175.963602 C327.789761,175.963602 327.644708,175.931399 327.498501,175.868717 C327.809409,174.813475 328.248033,173.818614 328.803969,172.909438 M365.876051,169.854699 C365.833287,169.824221 365.790523,169.794893 365.746024,169.766715 C364.218065,168.789106 362.14226,169.208328 361.025185,170.482669 C360.536285,171.040481 360.295879,171.769087 360.355981,172.481016 C360.383142,172.805927 360.453067,173.111286 360.551888,173.406869 C360.518948,173.432171 360.487163,173.457474 360.454223,173.481627 C360.350202,173.55811 360.239246,173.624818 360.128867,173.69325 C359.895975,173.837016 359.650947,173.962955 359.39436,174.058991 C359.089231,174.173429 358.75983,174.251637 358.431006,174.237261 C358.422916,174.237261 358.420604,173.023301 358.412514,172.927265 C358.346633,172.141153 358.137435,171.326288 357.638132,170.698318 C357.425466,170.430913 357.161367,170.106002 356.800182,170.055397 C356.567867,169.869651 356.277185,169.655152 355.933914,169.415926 C355.112723,168.844312 354.091579,168.545279 353.774892,168.545279 C351.998437,168.545279 350.496483,169.914506 349.312372,172.61328 C348.238062,174.997495 347.850293,177.572631 348.159468,179.45539 C348.203966,179.72452 348.298741,179.983298 348.435703,180.232876 C348.433391,180.236326 348.431657,180.240352 348.429346,180.243227 C348.310877,180.416896 348.086075,180.643472 347.915018,180.752734 C347.798283,180.828067 347.675191,180.893624 347.548053,180.951706 C347.398956,181.018988 347.242346,181.070169 347.082268,181.104673 C346.940684,181.134576 346.786385,181.156429 346.641911,181.164479 C346.335626,181.181156 346.023561,181.105823 345.761196,180.945955 C345.558354,180.822316 345.378629,180.649222 345.270562,180.438174 C345.187345,180.275431 345.144002,180.096011 345.110484,179.916591 C344.972367,179.173033 344.971789,178.397272 345.029001,177.645664 C345.033624,177.584132 345.038825,177.5226 345.044604,177.461068 C345.126088,176.553043 345.608054,174.667408 345.827654,173.78296 C345.827654,173.78296 347.945646,165.155278 347.945646,165.155278 C348.199343,164.121313 348.483668,163.093674 348.749501,162.062009 C348.798044,161.873964 348.846587,161.684768 348.912468,161.501897 C348.977192,161.322477 349.081791,161.16721 349.151139,160.98894 C349.290412,160.62895 349.338956,160.242508 349.398479,159.864116 C349.407725,159.804884 349.400213,159.747953 349.380564,159.693322 C349.311794,159.5024 349.096239,159.341383 348.943674,159.235571 C348.706736,159.071678 348.440326,158.955515 348.176227,158.841652 C348.106879,158.811749 348.039266,158.78242 347.976275,158.753667 C347.721422,158.638079 347.464836,158.531118 347.207672,158.430481 C347.00772,158.351698 346.812968,158.389652 346.685253,158.528817 C346.505527,158.723764 346.400928,158.952064 346.366254,159.22637 C346.321756,159.573708 346.257032,160.026859 346.148965,160.454131 C345.969239,161.166635 345.860594,161.898116 345.715542,162.618671 C345.565867,163.364529 345.406945,164.109237 345.239355,164.851069 C345.112218,165.412906 345.010508,165.978194 344.876436,166.538881 C344.808244,166.825263 344.734851,167.10992 344.660881,167.394576 C344.624473,167.533742 344.588066,167.672332 344.551658,167.810922 C344.518718,167.936861 344.454571,168.244521 344.443014,168.227844 C344.332635,168.656266 344.20492,169.14277 344.098009,169.572918 C343.591772,169.18245 342.972266,168.837986 342.598945,168.633839 C342.419797,168.536078 342.27879,168.459019 342.203085,168.404388 C341.515966,167.951813 340.883169,167.722938 340.322609,167.722938 C338.740905,167.722938 337.714561,169.199702 337.086387,170.463692 C336.683593,171.275107 336.310849,172.181983 336.013232,173.131413 C335.811546,173.720853 335.684409,174.286716 335.574031,174.892258 C335.422044,175.742778 335.339405,176.811821 335.371767,177.803806 C334.247758,179.018916 333.300007,179.847583 332.454544,180.257604 C331.574407,180.684301 330.415146,180.969533 329.436189,180.950556 C329.145506,180.944805 328.852513,180.927553 328.571655,180.850495 C327.86951,180.658423 327.092239,180.056331 326.910202,179.327151 C326.760526,178.727934 326.742034,178.280534 326.920604,177.868789 C328.351476,177.914219 329.936647,177.089577 331.616593,175.953251 C333.476843,174.653607 334.243134,173.286105 333.894085,171.888125 C333.753656,171.325137 332.424493,170.365356 331.85931,169.978913 C330.76304,169.229605 330.033156,168.86559 329.626317,168.86559 C328.365924,168.86559 327.165632,170.181336 325.95725,172.887586 C324.818793,175.412691 324.349541,177.419664 324.677786,178.73541 C324.79221,179.193736 324.954021,179.64171 325.185757,180.048856 C325.14646,180.114988 325.108319,180.18227 325.064977,180.246103 C324.946508,180.419197 324.722284,180.645772 324.551227,180.755609 C324.433914,180.830367 324.310822,180.8965 324.184262,180.954006 C324.035165,181.021864 323.877977,181.073044 323.717899,181.106973 C323.576893,181.136876 323.422594,181.158729 323.277542,181.16678 C322.971257,181.184032 322.659192,181.108698 322.397405,180.948831 C322.194563,180.824617 322.014837,180.651523 321.906771,180.440474 C321.823554,180.278306 321.779633,180.098311 321.746115,179.919466 C321.607998,179.175909 321.607998,178.399573 321.66521,177.647964 C321.669833,177.586432 321.675034,177.524901 321.680235,177.463944 C321.762297,176.555343 322.244263,174.669709 322.463863,173.785261 L324.581277,165.157578 C324.834974,164.123613 325.119877,163.095974 325.385132,162.064885 C325.433675,161.876264 325.482218,161.687643 325.548677,161.504198 C325.613401,161.324778 325.718,161.16951 325.78677,160.991241 C325.926621,160.631251 325.975164,160.245383 326.034688,159.866416 C326.043934,159.807759 326.035844,159.750253 326.016195,159.696197 C325.948003,159.504701 325.73187,159.343683 325.579883,159.238446 C325.342367,159.073978 325.075957,158.957815 324.811858,158.843952 C324.742511,158.814049 324.675474,158.785296 324.611906,158.756543 C324.357631,158.64038 324.101045,158.533418 323.843881,158.432782 C323.643929,158.353998 323.449177,158.391952 323.321462,158.531118 C323.141158,158.726064 323.036559,158.954365 323.001885,159.22867 C322.957387,159.576009 322.893241,160.029734 322.785174,160.456431 C322.60487,161.16951 322.496226,161.900992 322.351751,162.620971 C322.202076,163.367404 322.043154,164.111537 321.874986,164.853944 C321.747849,165.415782 321.646717,165.980494 321.512645,166.541182 C321.443875,166.827563 321.37106,167.112795 321.296512,167.397452 C321.260682,167.536042 321.224275,167.674632 321.187867,167.813223 C321.154349,167.939162 321.090203,168.246821 321.079222,168.230144 C320.968266,168.659142 320.841129,169.145071 320.734218,169.575218 C320.22798,169.185325 319.608475,168.840862 319.234576,168.636139 C319.056006,168.538378 318.914421,168.46132 318.839294,168.406689 C318.151597,167.954688 317.519378,167.725238 316.95824,167.725238 C315.376537,167.725238 314.35077,169.202002 313.722596,170.465992 C313.319802,171.277407 312.94648,172.184858 312.648863,173.133713 C312.447755,173.723154 312.32004,174.289591 312.21024,174.894559 C311.964056,176.273562 311.896442,178.229354 312.213707,179.496219 C312.394011,180.219075 312.874821,180.881548 313.642268,181.463513 C314.392378,182.033401 315.589203,182.34106 316.334112,182.34106 C317.09289,182.34106 317.854558,181.742419 318.672282,180.49683 L319.539705,178.839496 C319.57149,179.020066 319.610787,179.202362 319.65644,179.384082 C319.887599,180.31166 320.37361,181.207609 321.150882,181.790724 C321.65423,182.167966 322.330947,182.439396 322.971835,182.379014 C323.31395,182.346811 323.652597,182.269752 323.975064,182.150139 C324.28655,182.035126 324.571453,181.879284 324.819949,181.655009 C325.108319,181.395655 325.440032,180.979884 325.614557,180.650947 C325.691995,180.736632 325.772901,180.819441 325.860741,180.89765 C327.386389,182.253075 329.612447,182.433645 331.478476,181.723441 C332.621556,181.288118 333.520763,180.604367 334.387609,179.780876 C334.891535,179.301848 335.222092,178.982112 335.448049,178.756687 C335.480989,179.017766 335.521442,179.269069 335.577498,179.493919 C335.75838,180.216774 336.23919,180.878673 337.006059,181.461212 C337.756169,182.031101 338.952994,182.33876 339.698481,182.33876 C340.456681,182.33876 341.218927,181.740118 342.036073,180.49453 L342.903496,178.837196 C342.935859,179.017766 342.975156,179.199486 343.020232,179.381782 C343.251968,180.30936 343.737402,181.205309 344.515251,181.788424 C345.018599,182.165666 345.695316,182.437096 346.335626,182.376714 C346.678318,182.34451 347.016388,182.266877 347.339432,182.147839 C347.650341,182.032826 347.935244,181.876984 348.184318,181.652709 C348.419522,181.44051 348.684198,181.12365 348.869125,180.835543 C349.111264,181.100072 349.411193,181.3508 349.770067,181.587151 C350.272259,181.909187 350.855357,182.107584 351.434409,182.240424 C352.159092,182.406042 352.897066,182.485976 353.602678,182.200744 C354.240099,181.943116 354.809327,181.535971 355.29765,181.057518 C356.061051,180.30936 356.662642,179.410535 357.134784,178.456504 C357.371721,177.978051 357.576297,177.484646 357.754867,176.981465 C357.795898,176.864727 358.105073,175.63179 358.123565,175.633516 C358.680658,175.691597 359.260866,175.548981 359.742832,175.27065 C360.195903,175.008996 360.540908,174.578274 360.873198,174.166528 C360.956416,174.330996 361.04599,174.493739 361.141343,174.656482 C361.6366,175.504701 362.232412,176.30174 362.749052,177.139608 C363.272626,177.988402 363.847633,179.097125 363.237374,180.052881 C362.236457,181.61993 359.913312,180.58079 359.227926,179.248367 C359.107146,179.013741 358.997345,178.69458 358.964405,178.437527 L358.91644,178.039008 C358.910083,177.945272 358.875987,177.884315 358.829177,177.848086 C358.782368,177.811857 358.722266,177.799206 358.663899,177.802656 C358.593395,177.806682 358.525781,177.83256 358.485907,177.865338 C358.392287,177.940672 358.37784,178.087888 358.375528,178.220728 C358.374372,178.269608 358.375528,178.316763 358.374372,178.357593 C358.370327,178.519186 358.380151,178.681929 358.403845,178.841797 C358.431006,179.023517 358.477238,179.203512 358.548319,179.373731 C359.043577,180.552036 360.080902,181.502617 361.448206,181.709065 C363.23044,181.978195 365.135188,181.368627 365.649516,179.488168 C365.850624,178.752087 365.844845,177.959074 365.621777,177.228743 C365.402176,176.508763 364.930612,175.912422 364.476385,175.324131 C363.654616,174.259688 362.40058,173.306232 362.753675,171.879499 C363.044935,170.705794 364.444601,169.871376 365.509087,170.877738 C365.819995,171.17217 365.856981,171.598868 365.759894,171.98071 C365.668586,172.340125 365.464589,172.751296 365.149635,172.992247 C365.021342,173.089433 364.892471,173.185469 364.760132,173.278054 C364.689051,173.328085 364.578095,173.366614 364.600055,173.446548 C364.623171,173.531657 364.790183,173.682324 364.872244,173.728904 C364.923099,173.758233 365.048503,173.747881 365.105715,173.751332 C365.285441,173.761683 365.4669,173.758233 365.644893,173.734655 C365.844267,173.708202 366.046531,173.655871 366.213543,173.549484 C366.410028,173.424695 366.557392,173.213647 366.674705,173.026176 C367.351422,171.945631 366.917999,170.601707 365.876051,169.854699" id="Fill-30" fill="#000000"></path>
                <path d="M231.882889,176.375108 C231.43726,177.567056 230.735407,179.317237 229.641958,180.095158 C228.664128,180.790273 227.326657,181.337803 226.478391,180.224154 C226.41971,180.146982 226.345342,179.977428 226.276202,179.779145 C226.970502,177.213302 227.664801,174.646896 228.359682,172.081054 C228.37014,172.041622 228.380598,172.001628 228.391637,171.961633 C228.73501,171.571265 229.139389,171.233283 229.589667,170.98712 C230.392034,170.548871 231.785281,170.342139 232.283201,171.313836 C232.418575,171.578024 232.467379,171.875448 232.495849,172.169492 C232.631222,173.587324 232.379067,175.047404 231.882889,176.375108 M232.366285,169.470147 C231.4146,169.248205 230.32638,169.658853 229.562941,170.186667 C229.231188,170.415931 228.939524,170.61872 228.68853,170.851928 C228.758251,170.589992 228.822161,170.325803 228.903502,170.066684 C228.963926,169.874034 228.981356,169.668992 228.722809,169.623365 C228.632173,169.607029 228.539212,169.619985 228.447995,169.632941 C228.030834,169.692651 227.614254,169.751798 227.197093,169.811508 C227.028602,169.835167 226.854882,169.861078 226.708469,169.945011 C226.514414,170.055981 226.453989,170.267783 226.387174,170.462686 C226.294794,170.732507 226.221588,171.010216 226.140828,171.282854 C225.981633,171.817428 225.822438,172.352565 225.675444,172.891082 C225.049122,175.187667 224.420476,177.289348 223.681439,179.554951 C223.674467,179.57692 223.623919,179.748164 223.544903,180.020239 C223.153306,180.566642 222.586246,181.14628 222.040684,181.508484 C221.851858,181.6341 221.655478,181.754084 221.437021,181.817737 C221.104106,181.914625 220.645112,181.93941 220.560867,181.549605 C220.495794,181.248801 220.639302,180.933915 220.729939,180.652264 C220.786877,180.474824 220.843235,180.29682 220.899592,180.118817 C221.075636,179.562274 221.247033,179.004041 221.4132,178.444682 C221.622942,177.741117 221.823969,177.035862 222.013958,176.326664 C222.49561,174.528603 222.890692,173.058383 223.350267,171.261448 C223.38687,171.117243 223.421149,170.952759 223.343294,170.807427 C223.257306,170.646885 223.07429,170.580416 222.912771,170.531408 C222.569978,170.426634 222.22951,170.303271 221.884394,170.25032 C221.321401,170.164698 221.022184,171.241733 220.874028,171.844466 C220.37146,173.888128 219.366323,175.877712 218.200248,177.694926 C217.738931,178.4137 217.112028,179.149373 216.464209,179.718308 C216.131874,180.010099 214.786269,181.200921 214.269176,180.650574 C214.140774,180.514818 214.059434,180.340194 214.027478,180.12107 C213.98797,179.854064 214.059434,179.563964 214.096037,179.420885 C214.244193,178.848569 214.460907,178.294843 214.663097,177.7383 C215.277218,176.043323 215.788501,174.328067 215.883205,172.520429 C215.950601,171.219764 215.076771,170.209763 213.749758,170.028943 C213.648664,170.015423 213.546988,170.007537 213.444731,170.01148 C213.244866,170.018803 213.049068,170.07795 212.906722,170.219902 C212.869538,170.25708 212.837582,170.298201 212.809113,170.341575 C212.783549,170.381007 212.739974,170.4379 212.727773,170.482401 C212.699303,170.585485 212.849202,170.678994 212.909627,170.742647 C212.975861,170.81306 213.040934,170.884599 213.101358,170.960082 C213.200129,171.082318 213.28786,171.214131 213.343637,171.36059 C213.480173,171.719977 213.456933,172.241031 213.393022,172.607741 C213.269268,173.318629 213.083928,173.918546 212.856755,174.602395 C212.335014,176.169503 211.756915,177.524245 211.289207,179.107125 C211.125364,179.463696 210.773276,180.157121 210.246305,180.592554 C209.762329,180.992499 209.122644,181.282599 208.71536,181.282599 C207.743921,181.282599 207.690469,180.251193 207.851407,179.57354 C208.329573,177.558607 209.868653,175.879965 210.193434,173.821095 C210.375288,172.719275 210.174261,171.561689 209.497391,170.681247 C209.330643,170.463812 209.131359,170.271726 208.897214,170.116254 C208.873393,170.100482 208.848991,170.08471 208.824589,170.070064 C208.029775,169.582244 207.073443,169.689835 206.251903,170.052038 C205.171817,170.528592 204.47287,171.311582 203.823307,172.245538 C203.727442,172.383547 203.289946,172.94516 203.081365,173.248216 C203.127846,173.141752 203.164449,172.960369 203.193499,172.858411 C203.368962,172.233708 203.54152,171.608443 203.712335,170.98205 C204.372356,168.551964 204.991125,166.120187 205.82138,163.736854 C206.086317,162.976396 206.390763,162.23002 206.659768,161.471815 C206.853242,160.926538 207.107141,160.226916 206.8637,159.660797 C206.673712,159.217478 206.337311,158.960612 205.93177,158.720645 C205.741782,158.607985 205.571548,158.450823 205.34728,158.399563 C205.319392,158.393367 205.289761,158.389987 205.258968,158.389987 C205.13289,158.391677 205.035281,158.461526 204.966723,158.560104 C204.80288,158.795565 204.89003,158.713322 204.735483,159.266485 C204.511216,160.069192 204.266032,160.866828 204.039441,161.668971 C203.183041,164.700101 202.366149,167.745314 201.651515,170.810806 C201.299426,172.322147 201.005438,173.84588 200.656255,175.356657 C200.397708,176.478193 200.144391,177.663944 199.619744,178.702674 L199.620325,178.703237 C199.045712,179.672681 198.550116,180.436519 197.432846,181.092203 C196.610725,181.574953 194.780563,181.672968 194.010152,181.087134 C193.497125,180.697328 193.068925,180.23542 192.883585,179.637193 C192.551251,178.563538 192.501285,177.343425 192.662804,176.247802 C192.826647,175.136406 193.171182,174.049232 193.683628,173.042048 C194.114732,172.193714 194.966484,171.298626 195.740962,171.139775 C196.308022,171.023171 197.056936,170.999513 197.300377,172.709699 C197.378231,173.254976 197.229494,173.933755 196.992445,174.500438 C196.747261,175.087399 196.473608,175.555503 196.008224,175.979107 C195.949543,176.03262 195.996023,176.10416 196.044246,176.145844 C196.055285,176.15542 196.067486,176.16725 196.079688,176.175136 C196.095375,176.185275 196.114548,176.185839 196.13314,176.187529 C196.180201,176.192598 196.227262,176.192598 196.274324,176.190908 C196.610144,176.180206 197.040668,176.175699 197.361382,176.059659 C197.801202,175.901371 198.18176,175.605074 198.462965,175.241744 C199.295544,174.163583 199.270561,172.474802 198.457155,171.394388 C197.391013,169.977119 195.053635,169.812634 193.541282,170.641816 C192.972479,170.953885 192.48153,171.385938 192.049264,171.860802 C190.563056,173.495506 190.023884,175.661967 190.00031,177.827302 C189.991348,178.709434 190.176107,179.661415 190.595011,180.48271 C190.719927,180.72155 190.872731,180.961517 191.054585,181.202611 C191.185311,181.367658 191.327657,181.524256 191.485109,181.666208 C192.557061,182.633962 194.652742,182.952228 196.059352,182.673393 C197.629806,182.36245 199.149712,181.034746 200.002626,179.593255 C199.995654,179.651839 199.988682,179.710422 199.982291,179.769569 C199.900369,180.504679 199.690046,181.646493 199.746403,182.386672 C199.882939,182.579885 200.035162,182.575379 200.257686,182.554536 C200.835204,182.501023 201.128611,181.493838 201.302331,180.778444 C201.361013,180.558756 201.407493,180.36498 201.44642,180.23711 C201.65442,179.545375 201.821168,178.909406 201.960028,178.277944 L202.184876,177.25893 C202.205792,177.164858 202.226128,177.07135 202.247625,176.977279 C202.542775,176.059659 202.919846,175.159502 203.398012,174.347219 C203.949385,173.410447 205.160197,172.099642 206.161267,171.705894 C206.545891,171.554366 206.99675,171.47832 207.36104,171.675476 C207.72591,171.873195 207.915318,172.308628 207.93391,172.726598 C207.946692,173.024585 207.924033,173.328205 207.867675,173.626192 C207.307006,176.729426 204.378747,181.053335 207.340124,182.240777 C207.934491,182.479617 208.476567,182.511162 209.100565,182.259366 C210.07549,181.865618 211.021945,181.007145 211.359509,180.560446 C211.654077,181.353576 212.336757,182.034045 213.173403,182.296544 C213.896752,182.523555 214.582918,182.378223 215.26095,182.124737 C216.712878,181.580586 217.657591,180.496793 218.471577,179.277243 C218.625543,179.046852 218.776023,178.814771 218.925341,178.581564 C219.000872,178.464397 219.075821,178.346667 219.151352,178.228937 C219.211776,178.134865 219.269295,177.994603 219.371552,177.936583 C219.39363,177.92419 219.423261,177.921374 219.443596,177.936019 C219.461608,177.949539 219.467999,177.974324 219.465094,177.996293 C219.45115,178.094307 219.401183,178.192885 219.366323,178.28583 C219.326815,178.391168 219.287887,178.496505 219.248379,178.601843 C219.079307,179.055865 218.875375,179.506507 218.808559,179.98813 C218.719666,180.623536 218.748716,181.353576 219.077564,181.911245 C219.387239,182.436243 219.92002,182.719021 220.55099,182.777604 C221.187189,182.836751 221.84198,182.55003 222.343387,182.18839 C222.635051,181.978278 222.8721,181.791825 223.087072,181.595232 C222.42647,183.871538 221.448641,187.249663 221.413781,187.355563 C221.327211,187.616936 221.09539,188.290082 221.329535,188.521036 C221.411457,188.602715 221.504998,188.680451 221.614808,188.724952 C221.660707,188.743541 221.789109,188.877607 221.835589,188.893379 C221.969801,188.93957 221.930293,188.940133 222.120862,189.012236 C222.299231,189.079832 222.467722,189.194183 222.644347,189.261216 C222.818648,189.326559 222.933687,189.318109 223.058022,189.36092 C223.187585,189.405421 223.471115,189.409364 223.545484,189.296704 C223.635539,189.159258 223.736634,188.673128 223.768589,188.564974 C223.834243,188.322754 226.011845,180.755348 226.077499,180.513692 C226.090281,180.542983 226.103644,180.574528 226.116426,180.601567 C226.507442,181.465109 227.302836,181.989544 228.122051,182.235707 C230.454782,182.937582 232.657368,180.394835 233.642169,178.553962 C234.825093,176.343563 235.626878,173.483113 234.349832,171.142028 C233.929185,170.370304 233.269746,169.680822 232.366285,169.470147" id="Fill-32" fill="#000000"></path>
                <path d="M373.947737,167.38697 C373.765536,166.738386 373.381451,166.454444 372.898954,166.397656 C372.481691,166.348638 372.357411,166.529166 372.390028,167.096452 C372.415334,167.54538 372.453011,167.993112 372.487314,168.474917 C372.471006,168.675171 372.47438,168.91428 372.428268,169.134858 C372.304551,169.722469 372.161714,170.302308 372.022813,170.883941 C371.942397,171.222281 372.081298,171.464977 372.333793,171.368735 C372.50306,171.304176 372.674577,171.175655 372.805042,171.016049 C373.365705,170.332197 373.691305,169.448689 373.903874,168.483883 C373.98204,168.128806 374.051209,167.755796 373.947737,167.38697" id="Fill-34" fill="#000000"></path>
                <path d="M370.051694,166.404051 C369.669845,166.33545 369.547499,166.510889 369.549694,167.083315 C369.551888,167.535408 369.564507,167.986377 369.573285,168.472208 C369.548596,168.672951 369.540367,168.913617 369.487149,169.132916 C369.345602,169.717713 369.186498,170.294075 369.030685,170.871562 C368.940161,171.20782 369.056471,171.458608 369.293481,171.373138 C369.452037,171.315783 369.616078,171.194887 369.743362,171.040816 C370.291996,170.379545 370.634344,169.506286 370.875743,168.546994 C370.965171,168.193867 371.046369,167.822184 370.969011,167.446564 C370.832401,166.786418 370.492796,166.483336 370.051694,166.404051" id="Fill-36" fill="#000000"></path>
                <path d="M243.915457,172.494904 C243.115053,174.950213 242.531485,176.68043 241.747102,179.132864 C241.614368,179.548024 241.164106,180.20814 240.773344,180.461147 C240.066197,180.918283 239.456312,181.00281 238.974582,180.819955 C238.19592,180.524398 237.731354,179.97181 237.703892,179.111014 C237.644391,177.211743 238.036869,175.499926 239.217735,173.221146 C239.436859,172.877863 239.670859,172.474778 239.951772,172.078594 C240.359126,171.50358 240.852298,170.981467 241.582329,170.742836 C242.941127,170.298351 244.298781,171.31785 243.915457,172.494904 M246.999212,170.653134 C247.00665,170.547332 246.959735,170.442104 246.929985,170.342627 C246.922547,170.316176 246.913965,170.288575 246.896802,170.2673 C246.872772,170.238549 246.835584,170.224749 246.800112,170.212098 C246.68626,170.172422 246.571262,170.134472 246.455693,170.098821 C246.377312,170.075245 246.298931,170.052245 246.220549,170.029244 C245.985978,169.963692 245.742253,169.84409 245.500244,169.825114 C245.482508,169.823964 245.4642,169.822814 245.44818,169.815914 C245.439026,169.811889 245.430444,169.806139 245.421863,169.801538 C245.40241,169.792913 245.381242,169.792338 245.360073,169.791763 C245.333183,169.791188 245.305721,169.792913 245.278831,169.798088 C245.267389,169.800388 245.255374,169.806714 245.244504,169.809014 C245.234778,169.810739 245.223335,169.806714 245.213609,169.809589 C245.209604,169.811314 245.206171,169.814189 245.202739,169.816489 C245.168983,169.84524 245.131223,169.86594 245.099184,169.897566 C245.07115,169.926317 245.046548,169.958517 245.024808,169.993018 C244.901801,170.187948 244.870334,170.421979 244.789664,170.634734 C244.760486,170.711786 244.65121,171.046444 244.58942,171.189622 C244.410917,170.835989 244.194082,170.515706 243.944063,170.263275 C243.663721,169.980368 243.349625,169.709536 242.94742,169.548532 C240.9713,168.760763 238.124976,171.059094 236.776477,173.123969 C236.088782,174.177969 235.686578,175.23542 235.410814,176.243419 C234.925079,178.019637 234.804361,179.657277 235.410814,180.959109 C235.620211,181.409345 235.922866,181.826805 236.345666,182.102236 C237.378353,182.774428 239.322434,182.227589 240.914087,180.892407 C240.99304,180.825705 241.071422,180.757854 241.250497,180.6049 C241.114903,181.041336 241.005627,181.288592 240.965578,181.62785 C240.950131,181.763553 241.015353,181.871656 241.134355,181.932607 C241.190424,181.961933 241.260795,181.988959 241.323729,181.995859 C241.399249,182.004484 241.469621,182.018284 241.545141,182.03036 C241.598921,182.038985 241.660711,182.03036 241.716207,182.03381 C241.789439,182.03841 241.863243,182.041285 241.936475,182.035535 C242.012568,182.029785 242.087516,182.015409 242.163609,182.011959 C242.257437,182.008509 242.351838,182.022309 242.445667,182.030935 C242.521759,182.037835 242.598424,182.04071 242.675089,182.04416 C242.756331,182.04761 242.837572,182.050485 242.919386,182.053935 C242.996051,182.057385 243.072716,182.06026 243.148809,182.04876 C243.588773,181.979758 243.703198,181.499047 243.819912,181.139663 C244.428653,179.259942 246.890508,171.151671 246.943144,170.918791 C246.962596,170.831388 246.992919,170.742836 246.999212,170.653134" id="Fill-38" fill="#000000"></path>
            </g>
        </g>
    </g>
</svg>