<?xml version="1.0" encoding="UTF-8"?>
<svg width="30px" height="28px" viewBox="0 0 30 28" version="1.1" xmlns="http://www.w3.org/2000/svg" xmlns:xlink="http://www.w3.org/1999/xlink">
    <title>pizzas-r</title>
    <g id="Page-1" stroke="none" stroke-width="1" fill="none" fill-rule="evenodd">
        <g id="pizzas-r" transform="translate(-0.000000, 0.264649)" fill="#2D5D2A" fill-rule="nonzero">
            <path d="M18.7755001,20.6751514 C17.8703001,20.2636514 17.1708001,19.6601514 16.7456001,18.7755514 C15.9500001,17.1227514 16.2998001,15.1613514 17.6851001,13.9749514 C18.7618001,13.0491514 20.0305001,12.7542514 21.4090001,13.1588514 C21.7930001,13.2685514 22.1702001,13.4331514 22.5063001,13.6526514 C22.7600001,13.8172514 22.8286001,13.6663514 22.9177001,13.5223514 C23.2812001,12.9050514 23.6310001,12.2741514 23.9944001,11.6500514 C25.0643001,9.81215142 26.1341001,7.97421142 27.2040001,6.14313142 C27.6360001,5.39561142 28.0681001,4.64123142 28.5001001,3.89371142 C28.8224001,3.32450142 28.7607001,2.52898142 28.3287001,1.99406142 C27.8623001,1.41799142 27.2314001,1.15738142 26.5182001,1.34255142 C23.5075001,2.13121142 20.5037001,2.95417142 17.4931001,3.75655142 C15.2985001,4.33948142 13.0903001,4.91555142 10.8957001,5.49848142 C9.2840801,5.92367142 7.6724601,6.36944142 6.0608401,6.79464142 C5.8619601,6.84950142 5.8345201,6.93180142 5.9031001,7.11696142 C6.3694501,8.31025142 6.8015001,9.51039142 7.2884101,10.6899514 C7.9056301,12.1918514 8.7628801,13.5771514 9.7024201,14.8939514 C10.2373001,15.6482514 10.8340001,16.3546514 11.4169001,17.0678514 C11.7667001,17.4999514 12.1301001,17.9251514 12.5279001,18.3091514 C13.1314001,18.8920514 13.7555001,19.4544514 14.3933001,19.9893514 C15.1339001,20.6065514 15.9089001,21.1895514 16.6907001,21.8067514 C16.5055001,22.0879514 16.3204001,22.4033514 16.1009001,22.6982514 C16.0666001,22.7531514 15.8883001,22.7668514 15.8266001,22.7257514 C15.0173001,22.1153514 14.1944001,21.5187514 13.4194001,20.8671514 C12.7474001,20.3048514 12.1096001,19.7081514 11.4924001,19.0841514 C9.9630201,17.5205514 8.6462901,15.7922514 7.5215901,13.9200514 C6.3214401,11.9243514 5.3819001,9.81905142 4.7098201,7.59016142 C4.5452301,7.05524142 4.4012101,6.52032142 4.2297601,5.94425142 C5.0390001,5.72479142 5.8345201,5.51219142 6.6300501,5.29960142 C8.4611301,4.80582142 10.2853001,4.31891142 12.1164001,3.82513142 C13.7075001,3.39994142 15.2985001,2.98160142 16.8896001,2.55641142 C18.7275001,2.06263142 20.5654001,1.56886142 22.4102001,1.08194142 C23.7201001,0.732189416 25.0163001,0.306995416 26.3467001,0.0601084163 C28.0749001,-0.255358544 29.5082001,0.691041416 29.9266001,2.42611142 C30.1666001,3.43423142 29.7826001,4.27776142 29.2888001,5.11443142 C28.6373001,6.21857142 27.9926001,7.32956142 27.3480001,8.43369142 C26.3604001,10.1344514 25.3660001,11.8352514 24.3853001,13.5360514 C23.4252001,15.2025514 22.4720001,16.8689514 21.5050001,18.5354514 C20.7026001,19.9139514 19.8934001,21.2923514 19.0910001,22.6708514 C18.3298001,23.9807514 17.5342001,25.2768514 16.8279001,26.6210514 C16.2792001,27.6634514 14.8459001,27.9103514 13.9338001,27.2931514 C12.5759001,26.3810514 11.2317001,25.4483514 10.0316001,24.3441514 C9.2360801,23.6103514 8.4199801,22.9040514 7.6793201,22.1153514 C6.5751901,20.9426514 5.5533501,19.6876514 4.6275201,18.3640514 C3.5508201,16.8209514 2.5701301,15.2093514 1.8020401,13.4948514 C1.1573901,12.0409514 0.5676011,10.5528514 0.0944011007,9.03719142 C-0.2347819,7.98107142 0.3207141,7.04838142 1.3905601,6.68491142 C1.8363301,6.53403142 2.2958101,6.45174142 2.7964401,6.32829142 C2.8993101,6.73291142 3.0090401,7.13753142 3.1187701,7.56273142 C2.7072901,7.67246142 2.3163801,7.78218142 1.9323401,7.87820142 C1.3837001,8.01535142 1.1779601,8.35140142 1.3837001,8.88632142 C1.8706201,10.1756514 2.3643901,11.4649514 2.8924501,12.7404514 C3.5782501,14.3795514 4.4766501,15.8951514 5.5053401,17.3353514 C6.2597201,18.3983514 7.0758201,19.4270514 7.9262101,20.4145514 C8.6805801,21.2855514 9.4898201,22.1084514 10.3334001,22.8902514 C11.6912001,24.1521514 13.1726001,25.2562514 14.7293001,26.2575514 C15.0448001,26.4633514 15.4837001,26.3467514 15.6757001,26.0175514 C16.4507001,24.6870514 17.2188001,23.3497514 17.9869001,22.0124514 C18.2475001,21.5735514 18.5081001,21.1277514 18.7755001,20.6751514 Z M22.1016001,14.9213514 C21.4158001,14.4618514 20.7506001,14.2012514 19.9277001,14.3041514 C18.6589001,14.4687514 17.4588001,15.8471514 17.6371001,17.2324514 C17.7674001,18.2337514 18.2817001,18.9263514 19.1253001,19.4064514 C19.3104001,19.5093514 19.4339001,19.5161514 19.5573001,19.2898514 C19.8934001,18.6726514 20.2637001,18.0691514 20.6203001,17.4519514 C21.1141001,16.6289514 21.5941001,15.7991514 22.1016001,14.9213514 Z" id="Shape"></path>
            <path d="M15.7995001,10.0179514 C15.8612001,11.6638514 14.5307001,13.0148514 12.8711001,13.0011514 C11.1360001,12.9874514 9.9084701,11.7804514 9.8810401,10.0453514 C9.8536001,8.39942142 11.1703001,6.98668142 13.0631001,7.06897142 C14.4484001,7.13755142 15.8886001,8.38571142 15.7995001,10.0179514 Z M12.8711001,8.35827142 C11.7807001,8.33770142 11.1292001,9.23609142 11.1566001,10.0316514 C11.1909001,11.0671514 11.8767001,11.7049514 12.8300001,11.7186514 C13.7146001,11.7323514 14.4896001,11.0671514 14.5307001,10.0247514 C14.5719001,9.18123142 13.6941001,8.26912142 12.8711001,8.35827142 Z" id="Shape"></path>
            <path d="M17.8152001,6.30096142 C17.8152001,4.97051142 18.8645001,3.92810142 20.2018001,3.92810142 C21.5116001,3.92810142 22.5952001,4.99108142 22.5815001,6.28038142 C22.5678001,7.68627142 21.5528001,8.69439142 20.1880001,8.69439142 C18.8370001,8.69439142 17.8358001,7.65198142 17.8152001,6.30096142 Z M20.1880001,5.20368142 C19.6257001,5.21054142 19.0702001,5.74546142 19.0976001,6.31467142 C19.1319001,6.95246142 19.5571001,7.38452142 20.1538001,7.41881142 C20.7778001,7.45310142 21.2990001,6.86331142 21.3059001,6.32839142 C21.3196001,5.74546142 20.7641001,5.19682142 20.1880001,5.20368142 Z" id="Shape"></path>
        </g>
    </g>
</svg>