<?xml version="1.0" encoding="UTF-8"?>
<svg width="27px" height="28px" viewBox="0 0 27 28" version="1.1" xmlns="http://www.w3.org/2000/svg" xmlns:xlink="http://www.w3.org/1999/xlink">
    <title>promociones_3</title>
    <g id="Page-1" stroke="none" stroke-width="1" fill="none" fill-rule="evenodd">
        <g id="promociones_3" transform="translate(0.000000, 0.254150)" fill="#2D5D2A" fill-rule="nonzero">
            <path d="M3.15905998,21.3547495 C3.14320998,20.9941495 3.12735998,20.6335495 3.10358998,20.2730495 C3.08773998,20.0352495 2.90942998,19.9084495 2.72715998,19.8054495 C2.53696998,19.6944495 2.33091998,19.6073495 2.13280998,19.5082495 C1.16201998,19.0169495 0.86880698,17.9470495 1.30070998,17.0238495 C1.38391998,16.8455495 1.47108998,16.6712495 1.55825998,16.4968495 C1.70090998,16.2036495 1.66127998,15.9659495 1.43542998,15.7321495 C1.09069998,15.3794495 0.74201098,15.0268495 0.40917198,14.6622495 C0.15954198,14.3888495 0.0446329805,14.0520495 0.00897159047,13.6875495 C-0.0504640195,13.0337495 0.18727898,12.5067495 0.66672598,12.0629495 C0.97182898,11.7816495 1.25315998,11.4765495 1.52655998,11.1674495 C1.67316998,11.0010495 1.66523998,10.8029495 1.57014998,10.6008495 C1.39579998,10.2244495 1.18182998,9.85594951 1.07088998,9.45967951 C0.82918298,8.58795951 1.32447998,7.62905951 2.21997998,7.31999951 C2.37450998,7.26848951 2.52507998,7.21300951 2.67564998,7.15357951 C2.97678998,7.03470951 3.13131998,6.80488951 3.13131998,6.47204951 C3.13131998,5.92919951 3.13131998,5.39031951 3.13131998,4.84746951 C3.13131998,4.09461951 3.79699998,3.28629951 4.54984998,3.21100951 C5.16401998,3.14760951 5.78611998,3.15553951 6.40424998,3.16742951 C6.84010998,3.17534951 7.10954998,2.99703951 7.29577998,2.61268951 C7.45427998,2.28777951 7.61672998,1.94700951 7.85447998,1.68152951 C8.38146998,1.09906951 9.26903998,0.972269507 9.97434998,1.32095951 C10.1487,1.40812951 10.327,1.49529951 10.5013,1.57850951 C10.7946,1.72115951 11.0402,1.68549951 11.2661,1.45567951 C11.595,1.13075951 11.9199,0.801889507 12.2488,0.476972507 C12.8986,-0.157008093 14.0913,-0.160970493 14.7292,0.476972507 C15.0303,0.774149507 15.3275,1.07528951 15.6247,1.37246951 C15.9615,1.70926951 16.1636,1.73700951 16.5994,1.53095951 C16.8847,1.39623951 17.174,1.23774951 17.4791,1.17434951 C18.0536,1.05943951 18.5886,1.18227951 19.0482,1.58247951 C19.3771,1.86776951 19.5474,2.25211951 19.7178,2.63250951 C19.8922,3.02873951 20.1656,3.18723951 20.5896,3.16742951 C21.1047,3.14760951 21.6198,3.16345951 22.1349,3.16345951 C23.0145,3.16345951 23.803,3.92819951 23.8466,4.76029951 C23.8783,5.38238951 23.8862,6.00844951 23.8862,6.63449951 C23.8862,6.92771951 24.0091,7.10998951 24.2627,7.23678951 C24.5638,7.38735951 24.8729,7.53395951 25.1502,7.72415951 C25.5663,8.00151951 25.7882,8.41360951 25.8714,8.90890951 C25.9467,9.35269951 25.8516,9.75684951 25.6376,10.1451495 C25.5742,10.2600495 25.5306,10.3829495 25.4672,10.4978495 C25.2691,10.8346495 25.3404,11.0723495 25.6099,11.3576495 C25.915,11.6786495 26.2478,11.9718495 26.541,12.3007495 C26.8937,12.6929495 27.0443,13.1565495 26.9888,13.6994495 C26.9333,14.2105495 26.6916,14.6028495 26.339,14.9515495 C26.0497,15.2368495 25.7684,15.5340495 25.491,15.8351495 C25.2969,16.0451495 25.3246,16.2868495 25.4395,16.5245495 C25.5663,16.7900495 25.7169,17.0436495 25.812,17.3210495 C26.0735,18.0818495 25.7367,19.0327495 25.0155,19.4290495 C24.758,19.5676495 24.4965,19.6984495 24.2349,19.8331495 C24.0091,19.9520495 23.8823,20.1303495 23.8862,20.3997495 C23.8942,20.8832495 23.8902,21.3626495 23.8862,21.8460495 C23.8862,22.3572495 23.7951,22.8445495 23.4504,23.2487495 C23.1572,23.5934495 22.7887,23.8351495 22.337,23.8668495 C21.7188,23.9065495 21.1007,23.9223495 20.4826,23.9065495 C20.1101,23.8985495 19.8961,24.0689495 19.7376,24.3661495 C19.5791,24.6633495 19.4405,24.9763495 19.2503,25.2537495 C18.9967,25.6222495 18.6084,25.8044495 18.1725,25.8956495 C17.6772,25.9986495 17.2374,25.8559495 16.8055,25.6340495 C16.1834,25.3171495 16.12,25.1665495 15.4385,25.8480495 C15.1334,26.1531495 14.8283,26.4701495 14.4796,26.7197495 C13.8218,27.1913495 12.7956,27.0724495 12.2606,26.5177495 C11.9436,26.1927495 11.6068,25.8876495 11.278,25.5746495 C11.0402,25.3488495 10.8223,25.3250495 10.5132,25.4716495 C10.1527,25.6380495 9.80396998,25.8678495 9.42753998,25.9431495 C8.52807998,26.1254495 7.74352998,25.7450495 7.34728998,24.8653495 C7.23237998,24.6078495 7.12539998,24.3423495 6.98274998,24.1006495 C6.89953998,23.9580495 6.73311998,23.9104495 6.55481998,23.9144495 C6.05951998,23.9223495 5.56421998,23.9183495 5.06892998,23.9183495 C4.54984998,23.9183495 4.07040998,23.7757495 3.69397998,23.4112495 C3.36906998,23.0981495 3.16301998,22.7019495 3.14716998,22.2343495 C3.13924998,21.9451495 3.14716998,21.6519495 3.14716998,21.3626495 C3.14716998,21.3547495 3.15509998,21.3547495 3.15905998,21.3547495 Z M21.0373,22.6821495 C21.0373,22.6860495 21.0373,22.6940495 21.0373,22.6979495 C21.3464,22.6979495 21.6594,22.7019495 21.9685,22.6979495 C22.1547,22.6940495 22.3171,22.6385495 22.4598,22.5038495 C22.6302,22.3453495 22.6698,22.1472495 22.6738,21.9372495 C22.6817,21.3745495 22.6658,20.8158495 22.6777,20.2531495 C22.6936,19.6310495 22.9987,19.1635495 23.5098,18.8346495 C23.7832,18.6603495 24.0883,18.5414495 24.3657,18.3750495 C24.647,18.2086495 24.7778,17.9193495 24.5876,17.5587495 C24.4608,17.3249495 24.3419,17.0832495 24.2508,16.8336495 C24.0289,16.2274495 24.0844,15.6370495 24.4806,15.1298495 C24.8134,14.7058495 25.1938,14.3254495 25.5782,13.9490495 C25.8437,13.6914495 25.8199,13.2833495 25.5821,13.0535495 C25.2731,12.7563495 24.964,12.4552495 24.6708,12.1422495 C24.1636,11.6033495 24.0012,10.9733495 24.2349,10.2640495 C24.3221,9.99454951 24.4766,9.74496951 24.5995,9.48741951 C24.75,9.17438951 24.6748,8.86135951 24.3776,8.67908951 C24.128,8.52851951 23.8585,8.40568951 23.601,8.26303951 C23.0066,7.94208951 22.6896,7.43886951 22.6698,6.76525951 C22.6539,6.21845951 22.6698,5.66768951 22.6658,5.12087951 C22.6619,4.66123951 22.4122,4.35613951 21.9249,4.36405951 C21.2949,4.37594951 20.6609,4.36802951 20.0309,4.32443951 C19.5673,4.29273951 19.1789,4.05103951 18.9135,3.67064951 C18.6995,3.36157951 18.5489,3.01288951 18.3706,2.68004951 C18.228,2.41060951 17.9348,2.27984951 17.6455,2.38683951 C17.4276,2.46608951 17.2096,2.56117951 17.0076,2.67608951 C16.3736,3.03666951 15.3553,2.89005951 14.8441,2.32343951 C14.5667,2.01436951 14.2577,1.73304951 13.9645,1.43982951 C13.6594,1.13472951 13.3146,1.13472951 13.0056,1.43982951 C12.6846,1.76077951 12.3676,2.08965951 12.0387,2.40268951 C11.587,2.83458951 11.0323,2.95741951 10.4419,2.82665951 C10.1051,2.75137951 9.78018998,2.59287951 9.47508998,2.42645951 C9.19375998,2.27588951 8.71826998,2.37494951 8.58751998,2.72759951 C8.51222998,2.93364951 8.40524998,3.13175951 8.29825998,3.32591951 C7.92975998,3.99555951 7.37502998,4.37198951 6.59443998,4.37594951 C6.05951998,4.37594951 5.52459998,4.37594951 4.98967998,4.37594951 C4.58551998,4.37594951 4.34776998,4.61368951 4.34380998,5.01388951 C4.33588998,5.63994951 4.34380998,6.26599951 4.29625998,6.88809951 C4.26455998,7.33980951 4.01492998,7.70037951 3.65831998,7.98567951 C3.36113998,8.22737951 3.00452998,8.32247951 2.66375998,8.45719951 C2.39431998,8.56021951 2.15261998,8.81776951 2.25167998,9.13475951 C2.34280998,9.42401951 2.47356998,9.70137951 2.62413998,9.96684951 C3.02037998,10.6800495 2.87376998,11.6469495 2.26752998,12.1897495 C1.97430998,12.4552495 1.70486998,12.7444495 1.42353998,13.0297495 C1.16201998,13.2952495 1.13824998,13.6637495 1.36806998,13.9054495 C1.70486998,14.2581495 2.04166998,14.6068495 2.37846998,14.9594495 C2.82225998,15.4190495 2.92527998,15.9857495 2.81036998,16.5800495 C2.74696998,16.9089495 2.54884998,17.2140495 2.40620998,17.5270495 C2.22393998,17.9272495 2.32695998,18.2403495 2.71923998,18.4384495 C2.89357998,18.5255495 3.06792998,18.6167495 3.24226998,18.6999495 C3.99115998,19.0605495 4.33588998,19.6707495 4.34380998,20.4869495 C4.34776998,20.9901495 4.34380998,21.4894495 4.34380998,21.9926495 C4.34380998,22.4404495 4.60928998,22.7019495 5.06495998,22.7019495 C5.61969998,22.7019495 6.17442998,22.6860495 6.72915998,22.7059495 C7.22841998,22.7257495 7.66031998,22.9357495 7.94560998,23.3478495 C8.14372998,23.6330495 8.30618998,23.9540495 8.41316998,24.2789495 C8.53996998,24.6633495 8.94808998,24.9089495 9.37998998,24.6672495 C9.59791998,24.5484495 9.81980998,24.4374495 10.0417,24.3304495 C10.6678,24.0253495 11.5395,24.1442495 12.0189,24.5999495 C12.3716,24.9367495 12.7203,25.2735495 13.0729,25.6142495 C13.3107,25.8441495 13.6594,25.8480495 13.8971,25.6222495 C14.2339,25.2972495 14.5628,24.9644495 14.9115,24.6553495 C15.3751,24.2393495 15.9298,24.0570495 16.54,24.2155495 C16.8808,24.3027495 17.1978,24.4850495 17.5227,24.6316495 C17.8793,24.7940495 18.2121,24.6870495 18.3904,24.3344495 C18.4895,24.1442495 18.5767,23.9461495 18.6757,23.7559495 C18.9491,23.2249495 19.3533,22.8406495 19.9556,22.7415495 C20.3122,22.6821495 20.6767,22.6979495 21.0373,22.6821495 Z" id="Shape"></path>
            <path d="M8.09228998,18.0065495 C8.17152998,17.9431495 8.22700998,17.9074495 8.27454998,17.8599495 C11.4643,14.6741495 14.65,11.4844495 17.8358,8.29475951 C17.9784,8.15210951 18.0537,8.14021951 18.1924,8.29078951 C18.4024,8.52456951 18.6401,8.73457951 18.8779,8.96835951 C18.8145,9.03571951 18.7709,9.08722951 18.7194,9.13873951 C15.5297,12.3244495 12.3439,15.5102495 9.15815998,18.7039495 C9.01551998,18.8465495 8.94022998,18.8584495 8.80154998,18.7039495 C8.59153998,18.4701495 8.35379998,18.2601495 8.09228998,18.0065495 Z" id="Path"></path>
            <path d="M16.849,14.5355495 C18.0298,14.4721495 19.1591,15.4865495 19.1511422,16.8376495 C19.1432,18.1294495 18.1566,19.1635495 16.8133,19.1516495 C15.5295,19.1398495 14.5231,18.1412495 14.5150891,16.8257495 C14.5112,15.5657495 15.5573,14.4760495 16.849,14.5355495 Z M17.9228,16.8257495 C17.9902,16.2552495 17.3522,15.7519495 16.8965,15.7361495 C16.2309,15.7163495 15.7197,16.2908495 15.7356,16.8297495 C15.7554,17.4637495 16.2031,17.9154495 16.8371,17.9392495 C17.4116,17.9629495 17.9822,17.4003495 17.9228,16.8257495 Z" id="Shape"></path>
            <path d="M10.137,12.4591495 C8.91263998,12.5225495 7.78731998,11.3972495 7.85468998,10.0381495 C7.91411998,8.86531951 8.88093998,7.83906951 10.1846,7.84301808 C11.4248,7.84698951 12.5422,8.84946951 12.4827,10.2838495 C12.4352,11.3814495 11.504,12.5265495 10.137,12.4591495 Z M10.1727,11.2467495 C10.7512,11.2902495 11.2782,10.7197495 11.2663,10.1491495 C11.2544,9.51514951 10.7314,9.05551951 10.1687,9.05947951 C9.58227998,9.05947951 9.07905998,9.51514951 9.06716998,10.1412495 C9.05924998,10.7395495 9.55850998,11.2823495 10.1727,11.2467495 Z" id="Shape"></path>
        </g>
    </g>
</svg>